<svg width="735" height="1019" viewBox="0 0 735 1019" fill="none" xmlns="http://www.w3.org/2000/svg">
<g clip-path="url(#clip0_1120_943)">
<path fill-rule="evenodd" clip-rule="evenodd" d="M692.624 0.249023C696.565 0.249023 705.091 3.17937 707.672 14.9008C710.251 26.6222 704.447 34.0607 701.223 36.3148L599.114 65.6183C597.68 65.9939 593.74 65.1674 589.44 58.856C579.981 61.5608 572.601 62.9885 570.093 63.3641C569.376 63.7399 567.084 63.5896 563.645 59.983C555.906 62.6879 551.821 63.3641 550.746 63.3641H546.447L488.406 78.0158C465.118 84.0268 415.747 98.7537 404.569 109.573C400.27 113.18 394.896 119.341 392.746 121.971C397.763 124.225 407.149 132.114 404.569 145.639C403.524 151.122 403.495 204.025 403.457 274.168V274.174C403.38 420.301 403.262 641.24 393.821 664.084C392.962 669.495 392.03 671.598 391.671 671.974L387.373 673.101V694.516C393.821 693.764 407.363 695.642 409.944 709.167C412.523 722.692 400.986 725.322 394.896 724.946C393.105 724.57 389.092 723.143 387.373 720.437C387.373 723.143 386.655 723.819 386.298 723.819C388.089 724.57 391.456 726.524 390.596 728.327C389.737 730.13 387.373 731.333 386.298 731.709V739.597C381.64 778.669 372.97 859.066 375.549 868.081C384.148 865.377 402.061 874.468 409.944 879.353C404.211 909.407 390.596 970.193 381.998 972.899C373.399 975.602 350.47 968.014 340.08 963.882C323.599 982.666 277.955 1019.78 227.223 1017.98C170.047 1015.95 143.451 998.34 133.257 991.591C132.146 990.855 131.228 990.247 130.488 989.804C122.964 985.295 79.9709 945.849 78.8962 894.004C78.0363 852.529 82.8372 770.028 85.3451 733.962C87.4947 698.272 90.5042 622.384 85.3451 604.351C78.896 581.81 64.9234 537.855 40.2022 529.965C23.005 529.965 14.4064 527.71 12.2567 526.584C6.88255 525.081 -2.79092 519.146 1.5084 507.424C5.80772 495.703 22.6468 483.756 30.5288 479.247C55.9664 463.469 117.16 431.461 158.434 429.658C169.612 426.952 183.154 426.276 188.529 426.276C195.335 425.525 210.241 426.502 215.399 436.419C220.559 446.338 207.517 460.839 200.352 466.85C198.56 471.359 195.838 482.855 199.277 492.772C200.924 497.521 203.833 503.263 206.795 509.11C211.565 518.526 216.474 528.216 216.474 534.473C219.054 535.376 221.132 536.352 221.848 536.727C223.282 534.473 227.437 530.416 232.597 532.219C237.755 534.023 239.762 537.479 240.121 538.982H248.719L251.943 511.932C249.794 507.048 244.419 496.378 240.121 492.772C240.121 483.756 241.553 476.242 242.271 473.612C240.479 472.862 236.682 470.457 235.821 466.85C234.961 463.243 239.762 432.287 242.271 417.259C244.419 414.254 255.597 411.85 283.113 426.276C278.815 410.948 287.771 396.597 292.787 391.338V385.701L279.89 391.338C278.098 395.094 273.441 402.834 269.141 403.734C261.617 400.354 261.617 396.973 261.617 391.338C261.617 385.701 288.488 301.173 301.386 296.665C292.166 291.831 292.436 287.826 292.701 283.938C292.744 283.294 292.787 282.653 292.787 282.013C292.787 280.684 295.496 271.322 299.235 258.405C308.176 227.506 323.007 176.259 320.732 165.926C318.992 158.021 315.689 153.725 312.846 150.029C310.419 146.874 308.33 144.156 307.835 140.004C306.975 132.791 316.075 134.744 320.732 136.623L331.481 153.528L334.706 142.258L339.005 137.75L341.155 130.987C339.364 123.849 337.285 107.545 343.304 99.4299C343.304 95.8234 344.021 93.419 344.379 92.6676C352.977 83.2755 371.895 64.0404 378.774 62.2371C383.073 63.1388 387.014 62.6127 388.446 62.2371C407.794 56.2261 448.638 44.2042 457.235 44.2042C459.712 40.7437 460.286 40.6036 461.878 40.2156C462.36 40.0981 462.935 39.958 463.685 39.6959C466.265 38.7943 468.343 40.8231 469.059 41.9501C474.433 39.3203 486.257 34.5115 490.556 36.3148C495.929 38.5689 494.856 44.2042 493.781 46.4582C492.921 48.2616 495.572 49.4638 497.004 49.8395L531.4 41.9501C536.414 39.6959 548.597 34.9623 557.195 34.0607C559.775 30.4542 562.57 29.5525 563.645 29.5525L581.916 25.0442C582.632 21.2874 585.141 13.7736 589.44 13.7736C593.74 13.7736 594.813 16.0278 594.813 17.1549L692.624 0.249023ZM222.923 730.581L227.223 733.962C226.506 738.094 223.998 746.36 219.699 746.36C215.399 746.36 214.324 777.917 214.324 793.697V812.856C212.176 815.11 209.81 820.294 217.549 823C225.288 825.705 253.018 828.635 265.917 829.762C265.199 853.43 262.048 900.992 255.168 901.893C253.017 902.175 250.259 902.033 247.165 901.875C237.896 901.4 225.608 900.77 217.549 910.909C205.725 913.164 204.652 871.463 205.725 864.701C206.587 859.291 211.817 860.193 214.324 861.32C218.624 862.822 226.793 863.123 225.073 852.303C223.354 841.483 214.324 835.773 210.026 834.27C209.309 829.011 207.876 815.56 207.876 803.84C207.876 789.188 211.101 739.597 215.399 735.089C218.84 731.483 221.848 730.581 222.923 730.581ZM223.998 633.654C228.297 635.908 237.111 641.769 237.971 647.179C238.83 652.588 233.313 695.266 230.447 715.929C228.297 712.923 223.354 706.912 220.773 706.912C218.509 706.912 217.736 708.07 217.58 708.862C220.097 684.339 224.854 635.449 223.998 633.654ZM217.549 709.167L217.58 708.862C217.559 708.971 217.549 709.075 217.549 709.167ZM218.624 547.998H220.773C222.566 549.501 227.008 552.731 230.447 553.633C233.886 554.536 236.896 552.507 237.971 551.38C240.837 551.38 246.785 552.055 247.644 554.76C248.504 557.465 242.987 604.726 240.121 628.019C237.254 626.141 230.877 622.384 228.297 622.384C225.718 622.384 225.073 623.135 225.073 623.511C224.357 599.467 222.063 550.704 218.624 547.998Z" fill="black"/>
</g>
<defs>
<clipPath id="clip0_1120_943">
<rect width="734.97" height="1018.52" fill="white"/>
</clipPath>
</defs>
</svg>
