<svg width="340" height="117" viewBox="0 0 340 117" fill="none" xmlns="http://www.w3.org/2000/svg">
<path d="M0.946053 59.277L8.08289 44.9869L24.1408 43.2007L25.925 44.9869" fill="#A5A6F6"/>
<path d="M59.6466 105.389V89.7863L17.7266 0L0.5 36.3057V48.2737L16.3349 19.2737L59.6466 105.389Z" fill="#A5A6F6"/>
<path d="M59.6466 117V101.442L17.7176 11.6553L0.5 47.9611V59.929L16.3349 30.9291L59.6466 117Z" fill="#5957CB"/>
<path d="M56.212 83.8292H53.1342V93.2517H56.2209L56.212 83.8292Z" fill="white"/>
<path d="M52.7537 75.0229L52.4702 74.4156H50.0118V83.8292H53.1342V75.8378L52.7537 75.0229Z" fill="white"/>
<path d="M46.8895 74.4156H43.8295V83.8292H46.8895V74.4156Z" fill="white"/>
<path d="M49.0008 66.9847L48.0751 65.002H46.8895V74.4156H50.0118V69.1502L49.0008 66.9847Z" fill="white"/>
<path d="M56.212 83.8292H56.8632L56.212 82.418V83.8292Z" fill="white"/>
<path d="M48.0492 55.8117V12.2716H85.25V18.5235H91.4947V37.1542H79.0499V43.4061H85.2946V49.658H91.4947V55.9099H72.8497V49.658H66.6496V43.4061H60.4049V55.8117H48.0492ZM60.4495 37.1542H72.8497V30.9023H79.0945V18.4878H60.4495V37.1542Z" fill="white"/>
<path d="M141.069 18.4878V43.3704H134.824V49.6223H128.58V55.8742H103.779V49.6223H97.5343V18.4878H103.779V12.2359H134.78V18.4878H141.069ZM128.66 18.4878H110.059V49.5866H122.46V43.3347H116.215V37.0827H128.615L128.66 18.4878ZM134.905 55.8117V49.5598H141.149V55.8117H134.905Z" fill="white"/>
<path d="M153.469 55.8117V49.5598H147.269V12.2716H159.669V49.5866H178.27V12.2716H190.67V49.5866H184.47V55.8385L153.469 55.8117Z" fill="white"/>
<path d="M196.87 55.8117V12.2716H240.28V18.5235H209.253V30.9291H234.053V37.181H209.253V49.5866H240.253V55.8385L196.87 55.8117Z" fill="white"/>
<path d="M252.68 55.8117V49.5598H246.48V43.3079H258.889V49.5598H277.49V37.1542H252.68V30.9023H246.48V18.4878H252.68V12.2359H283.69V18.4878H289.89V24.7397H277.49V18.4878H258.889V30.9291H283.69V37.181H289.89V49.5866H283.69V55.8385L252.68 55.8117Z" fill="white"/>
<path d="M314.699 55.8117V18.4878H302.29V12.2359H339.5V18.4878H327.1V55.8117H314.699Z" fill="white"/>
</svg>
