<svg width="205" height="204" viewBox="0 0 205 204" fill="none" xmlns="http://www.w3.org/2000/svg">
<path d="M36.1372 79.2695V133.815H75.3418V121.883H50.9454V112.508H73.4241V100.576H50.9454V91.2013H75.4483V79.2695H36.1372Z" fill="white"/>
<path d="M82.7925 79.2695V133.815H119.653V121.883H97.6007V79.2695H82.7925Z" fill="white"/>
<path fill-rule="evenodd" clip-rule="evenodd" d="M125.639 133.815H146.626C152.166 133.815 156.969 132.732 161.035 130.566C165.101 128.382 168.244 125.257 170.463 121.191C172.683 117.107 173.793 112.224 173.793 106.542C173.793 100.86 172.674 95.9865 170.437 91.9204C168.217 87.8366 165.057 84.7116 160.955 82.5454C156.871 80.3615 152.024 79.2695 146.413 79.2695H125.639V133.815ZM146.094 121.244H140.447V91.8405H145.668C148.508 91.8405 150.905 92.2755 152.859 93.1456C154.829 94.0156 156.321 95.5159 157.333 97.6466C158.363 99.7773 158.878 102.743 158.878 106.542C158.878 110.342 158.372 113.307 157.36 115.438C156.365 117.568 154.909 119.069 152.992 119.939C151.092 120.809 148.793 121.244 146.094 121.244Z" fill="white"/>
<path fill-rule="evenodd" clip-rule="evenodd" d="M1 102.065C1 46.008 46.4431 0.564941 102.5 0.564941C158.557 0.564941 204 46.008 204 102.065C204 158.122 158.557 203.565 102.5 203.565C46.4431 203.565 1 158.122 1 102.065ZM13.8577 83.7332C12.6398 89.6533 12 95.7844 12 102.065C12 102.805 12.0089 103.542 12.0265 104.278C13.0732 103.434 14.3468 102.992 15.7087 103.017C16.2087 101.375 18.0887 100.922 20.0712 100.657C20.8587 99.9249 21.8637 99.6874 22.8937 99.7299C22.6846 99.1829 22.5937 98.5887 22.5153 98.0759L22.5087 98.0324L22.5084 98.0307C22.4634 97.7283 22.3985 97.292 22.3237 97.0924C20.5937 96.5249 19.8637 93.9424 19.6262 92.8324C19.5537 92.4974 19.4962 92.3249 19.4587 92.2399C19.417 92.2366 19.3687 92.2355 19.3204 92.2344C19.2962 92.2338 19.272 92.2332 19.2487 92.2324L19.2395 92.2321C18.9228 92.2222 18.4907 92.2086 17.9287 92.0699C17.0837 91.8599 16.5262 91.4824 16.2237 90.9199C15.7587 90.0549 15.9862 88.9824 16.5362 87.4224L16.5363 87.4222C16.6513 87.097 16.9564 86.2349 17.7412 86.0624C18.502 85.8928 19.0412 86.4424 19.5626 86.9738L19.5662 86.9774C19.9962 87.4174 20.4862 87.9149 21.0437 88.0274C21.3287 88.0849 21.5887 88.1774 21.8262 88.2999C21.6837 88.0549 21.4962 87.8599 21.2087 87.6899C19.6437 86.7699 19.4137 86.1949 19.4712 85.1799C19.4912 84.8424 19.5087 84.4949 19.2737 83.8649C19.052 83.2749 18.4203 83.0932 17.3787 83.3199C16.8887 83.4274 16.3337 83.5474 15.6662 83.6449C14.8924 83.7559 14.3091 83.8129 13.8577 83.7332ZM14.2469 81.9348C15.0359 78.461 16.0248 75.0632 17.2008 71.754C18.7897 71.7235 20.7234 72.7024 21.7387 73.3799L22.9262 72.1324C22.6245 71.7243 22.2763 70.6777 21.8356 69.3532L21.6662 68.8449C21.6012 68.6474 21.5737 68.5149 21.5637 68.4274C21.5887 68.4224 21.6137 68.4174 21.6337 68.4149C21.8737 68.3749 22.4387 68.2799 22.6387 67.7149C22.8487 67.1224 22.4312 66.6449 22.2737 66.4649C22.1337 66.3049 22.1437 66.1599 22.3412 65.5049C22.5287 64.8899 22.7812 64.0449 22.4387 63.1024C22.4062 63.0174 22.3937 62.9424 22.5137 62.7999C22.9212 62.3199 24.1587 61.9574 25.3537 62.1799C25.6012 62.2249 25.6512 62.3124 25.6662 62.3399C25.7812 62.5399 25.7412 63.0099 25.5687 63.4824L27.0287 64.3799C27.1712 64.2299 27.6837 64.0349 28.7112 64.2549L29.9387 64.5174L29.7612 63.2749C29.5587 61.8624 31.5087 59.3349 32.7312 59.0524C33.4145 58.8957 34.2795 59.7432 35.3262 61.5949L36.0112 62.8074L36.8262 61.9024C37.1912 61.4974 37.7062 61.5574 37.9812 61.6274C38.4937 61.7599 39.0762 62.1799 39.2237 62.8149C39.5837 64.3749 40.9087 66.4724 45.1787 67.6224C45.9562 67.8299 46.5187 67.9474 46.9312 68.0324C47.2412 68.0949 47.5612 68.1624 47.6237 68.1974C47.6947 68.2733 47.8425 68.6491 47.9871 69.0169L47.9962 69.0399C48.0962 69.2974 48.2162 69.6024 48.3687 69.9699C49.7587 73.3274 56.7812 72.7874 57.5762 72.7149L58.5662 72.6249L58.3512 71.6549C58.1512 70.7624 57.2312 69.7999 55.6762 69.7999C54.6912 69.7999 54.0112 69.4799 53.6712 67.8924C53.2162 65.7724 51.6562 65.9424 50.5162 66.0674L50.4813 66.0711C50.0923 66.1128 49.6519 66.1599 49.1762 66.1599C48.2862 66.1599 47.3887 65.4449 46.3512 64.6174L46.3294 64.6001C45.4673 63.9143 44.4911 63.1379 43.2962 62.5999C42.5987 62.2849 42.5787 61.8924 42.8737 60.6074L42.8745 60.6039C43.0647 59.768 43.4165 58.2217 41.8937 57.7524C40.6941 57.3833 39.7583 57.6411 38.8529 57.8906L38.8462 57.8924L38.8238 57.8986C38.2208 58.0642 37.5991 58.2349 36.8262 58.2349C35.9012 58.2349 35.6312 57.6174 35.2737 56.3074L35.2712 56.2982C35.1997 56.0317 35.1327 55.7823 35.0462 55.5549C34.9462 55.2849 34.8562 54.7074 35.1662 54.2599C35.5137 53.7549 36.3137 53.4874 37.4762 53.4874H38.1487L38.3212 52.8374C38.4462 52.3699 38.5562 52.2449 38.5562 52.2449C38.5643 52.2417 38.5723 52.2384 38.5798 52.2352C38.5838 52.2334 38.5876 52.2317 38.5912 52.2299C39.5923 51.7755 39.2147 50.8675 38.9374 50.2002L38.9362 50.1974C38.7987 49.8649 38.5087 49.1699 37.8237 49.0874C37.1942 49.0106 36.8473 49.4816 36.6367 49.7674L36.6312 49.7749C36.4287 50.0524 36.3262 50.1649 36.2087 50.1799C35.9137 50.0524 35.2762 49.1324 35.2762 48.1649C35.2787 47.4224 35.6612 46.9424 36.4462 46.6899L36.9687 46.5224L37.0462 45.9799C37.0862 45.7099 37.1937 45.3724 37.4937 45.2899C37.8987 45.1749 38.6462 45.4799 39.4012 46.4074L40.0562 47.2124L40.7387 46.4324C40.8712 46.2824 41.2412 46.2799 41.6012 46.4299C41.9962 46.5949 42.4387 46.9699 42.4587 47.5024C42.3512 47.7674 42.2087 48.0399 42.0712 48.3024L42.0701 48.3045C41.5501 49.297 40.7648 50.7958 42.3862 52.1224C42.5262 52.2374 42.6037 52.3174 42.6462 52.3674C42.6187 52.4224 42.5812 52.4949 42.5512 52.5524C42.3287 52.9749 41.9937 53.6124 42.0662 54.6274C42.2109 56.6535 43.4116 57.1256 44.8007 57.6718L44.8087 57.6749L44.8368 57.6859C45.1373 57.8031 45.4751 57.9349 45.8387 58.0949C46.8387 58.5324 46.8662 58.6524 47.0387 59.4399C47.1337 59.8799 47.2662 60.4824 47.5887 61.2649C48.6762 63.9099 49.4612 63.9174 52.0162 63.5299L52.2962 63.4874C53.1962 63.3524 53.3587 63.5924 53.8487 64.9974C54.1062 65.7349 54.3987 66.5699 54.9887 67.3224C55.2787 67.6924 55.2762 67.8374 55.2737 67.9449L55.2736 67.9509C55.271 68.1116 55.265 68.4786 55.5737 68.7774C55.9256 69.1193 56.2675 69.1025 57.2784 69.0527L57.2837 69.0524L57.3224 69.0504C57.8625 69.0229 58.6699 68.9818 59.8587 68.9549C61.6762 68.9149 62.4087 69.1024 62.7037 69.2699C62.8412 69.3474 62.8612 69.3724 62.9287 69.7449L62.9298 69.751C63.0174 70.2267 63.1629 71.0169 64.1537 71.4749L65.3187 72.0124L65.3937 70.7324C65.4262 70.2149 65.5512 69.8849 65.6637 69.5924C66.2787 67.9874 65.3662 67.4149 63.2462 66.2724C62.5562 65.9024 62.2762 65.6899 62.1637 65.5874C62.1787 65.5474 62.1962 65.5024 62.2112 65.4649C62.5362 64.6474 62.8087 63.6174 61.9362 61.7374C60.4012 58.4299 58.3687 58.3999 55.2912 58.3574C55.2398 58.3565 55.188 58.3557 55.1357 58.3548C54.2867 58.3407 53.3315 58.3248 52.2387 58.2424C49.5937 58.0449 49.4487 57.2399 49.2512 56.1249C49.1137 55.3499 48.9412 54.3849 47.9287 53.8074C46.9637 53.2574 47.6362 49.7949 48.0387 47.7274L48.0637 47.5986C48.1721 47.041 48.2751 46.5111 48.3587 46.0049C48.5012 45.1524 48.8837 45.0099 50.6312 45.1524C51.7387 45.2449 53.1187 45.3574 53.6337 44.1199C54.1437 42.8949 53.4662 42.1474 53.1012 41.7449L53.0995 41.743C52.7459 41.3521 52.6617 41.259 52.9587 40.6649C53.2762 40.0299 53.5487 39.7599 53.7687 39.5449C54.5812 38.7424 54.5537 38.1399 54.0462 36.6174C53.9387 36.2949 53.8412 36.0199 53.7562 35.7824C53.5662 35.2524 53.4412 34.9024 53.4787 34.7524C53.5362 34.5174 53.9437 34.0049 54.4187 33.4124C54.9887 32.6999 56.0987 32.2349 57.1712 31.7874L57.1728 31.7867C58.7098 31.1444 60.3013 30.4794 60.6912 28.9199C60.9737 27.7924 62.1837 27.8099 64.6212 28.2674C65.2032 28.3773 65.3859 28.6445 65.6181 28.9841L65.6192 28.9857C65.8217 29.2807 66.1267 29.725 66.7137 29.8049C67.3237 29.8899 67.8537 29.5224 68.3362 29.1149C69.7889 27.8869 69.2878 26.8358 68.9553 26.1383L68.9528 26.1331C68.7231 25.6513 68.5063 25.1965 68.6337 24.4324C68.8661 23.0301 68.9911 22.9824 70.1707 22.5326L70.1712 22.5324L70.2154 22.5155C70.5122 22.4022 70.8482 22.2738 71.2387 22.1024C71.5287 21.9749 71.6712 21.9999 72.2662 22.7724C72.6387 23.2574 73.1037 23.8624 73.8662 23.8049C74.5912 23.7524 75.0262 23.1124 75.2912 22.6349C76.5612 20.3524 79.3137 17.8874 81.5462 17.8874C82.6562 17.8874 82.8337 18.3174 83.1562 19.3749C83.3362 19.9649 83.5412 20.6324 84.0487 21.1399C84.8287 21.9199 85.8662 22.1974 86.7537 21.8674C87.6362 21.5374 88.1887 20.6899 88.2712 19.5424C88.3112 18.9849 88.1837 18.5374 87.8962 18.2124C87.4612 17.7199 86.8337 17.6874 86.3762 17.6649C85.6887 17.6324 85.6162 17.5924 85.5162 17.1874C85.3712 16.5999 85.4362 16.4774 85.4437 16.4649C85.5237 16.3399 85.9087 16.1274 86.2812 15.9224C86.8487 15.6099 87.6237 15.1824 88.5762 14.4574L88.8262 14.2674L88.8987 13.9624C89.0484 13.3244 89.4727 12.8174 90.0484 12.4145C91.7775 12.1766 93.5221 11.9875 95.2809 11.8487C95.8002 12.6204 96.0118 13.8447 95.7712 14.8624L95.6762 15.2599L95.9212 15.5874C96.0613 15.771 96.1734 15.9429 96.2822 16.1099L96.2937 16.1274C97.5262 18.0174 98.5687 17.5324 101.996 15.5599L102.171 15.4599L102.284 15.2924C103.34 13.7346 105.493 12.527 107.817 11.7185C111.512 11.9326 115.148 12.3684 118.711 13.0127C119.311 13.9699 119.818 15.2147 120.359 16.7774L120.519 17.2399L120.996 17.3449C122.059 17.5824 122.659 16.7124 123.139 16.0124L123.14 16.0109C123.628 15.3042 124.132 14.573 125.096 14.4086C125.453 14.5005 125.81 14.5946 126.166 14.6908C126.261 14.9002 126.31 15.238 126.361 15.7724L126.362 15.7767C126.439 16.5734 126.535 17.5633 127.391 18.0374C128.434 18.6174 129.231 17.6624 129.814 16.9649L129.819 16.9584C130.089 16.6373 130.377 16.2933 130.683 16.0393C131.653 16.357 132.616 16.6905 133.571 17.0398C133.695 17.2287 133.716 17.3463 133.716 17.4049C133.716 17.7376 133.104 18.2793 132.504 18.8096L132.479 18.8324L132.477 18.8341C131.354 19.8239 129.818 21.1787 129.301 23.4449L128.624 26.4074L130.774 24.2599C132.371 22.6624 134.379 23.2849 137.256 24.4174C137.516 24.5199 137.776 24.6224 138.031 24.7199C139.201 25.1674 139.269 26.2299 139.139 28.3849C139.086 29.2424 139.034 30.1274 139.169 30.9349L139.324 31.8699L140.244 31.6399C140.716 31.5224 141.086 31.3524 141.414 31.1999C142.194 30.8374 142.709 30.5999 144.566 31.5674C144.941 31.7624 145.186 31.9749 145.226 32.1374C145.301 32.4449 144.841 33.0874 144.504 33.5574C143.966 34.3074 143.356 35.1599 143.609 36.0899L143.881 37.0874L144.821 36.6549C146.014 36.1024 147.401 38.2499 148.351 40.1499L148.716 40.8799L149.469 40.5649C150.596 40.0949 151.464 40.0024 151.909 40.3074C152.593 40.772 152.564 42.2545 152.551 42.8881L152.551 42.8899V43.0149C152.409 43.1249 152.071 43.2849 151.816 43.4049C150.929 43.8249 149.714 44.3999 149.014 45.7124C148.579 46.5291 147.987 46.8718 147.418 47.2015L147.412 47.2046C146.806 47.5567 146.051 47.9944 146.051 48.9824C146.031 49.6299 144.226 52.7349 142.376 53.6599C142.209 53.7449 142.051 53.8224 141.901 53.8949C140.009 54.8274 139.214 55.3074 138.541 57.8599C138.319 58.7049 137.249 59.2823 136.211 59.8423L136.206 59.8452C134.865 60.5695 133.346 61.3895 133.446 63.0699C133.501 63.9991 133.187 64.7785 132.822 65.6824L132.821 65.6849L132.82 65.6878C132.443 66.6221 132.016 67.6788 132.016 68.9949V69.8699H132.891C134.534 69.8699 135.099 68.2927 135.554 67.0227L135.554 67.0224L135.572 66.9706C135.679 66.6744 135.788 66.3706 135.909 66.0824C136.154 65.4949 136.241 64.9724 136.311 64.5499C136.346 64.3249 136.399 64.0199 136.439 63.9574C136.439 63.9574 136.44 63.957 136.441 63.9564C136.458 63.948 136.572 63.8924 136.921 63.8924C139.004 63.8924 140.266 63.6849 140.266 60.8074C140.266 59.2849 143.234 57.3774 144.759 56.8224C145.024 56.7274 145.291 56.7149 145.601 56.7024C146.854 56.6499 147.976 56.3924 149.041 53.7274L149.124 53.5249L149.099 53.3074C148.771 50.3474 152.641 45.7974 153.931 44.8949C154.806 44.2824 155.689 44.4674 158.731 45.5249C160.239 46.0499 159.911 49.9299 159.216 52.3874L160.721 53.1974C160.836 53.0824 161.406 52.7724 162.466 52.8499C162.534 52.8549 162.664 52.9724 162.791 53.2224C163.431 54.4649 163.371 57.5199 162.431 59.0574L161.799 60.0924L162.981 60.3649C163.051 60.3799 163.091 60.3974 163.111 60.4074C163.169 60.6574 162.891 61.4299 162.739 61.8524C162.571 62.3149 162.399 62.7924 162.316 63.2524C162.314 63.2574 162.314 63.2624 162.314 63.2674C162.154 63.2817 161.833 63.223 161.65 63.1894L161.626 63.1849L161.625 63.1847C161.153 63.0972 160.521 62.9802 160.101 63.4224C159.534 63.6674 157.096 64.0499 156.219 63.8549C155.872 63.7776 155.555 63.4489 155.154 63.0328L155.151 63.0299C154.691 62.5499 154.116 61.9549 153.274 61.5724C152.789 61.3524 152.346 61.3399 151.959 61.5399C151.324 61.8674 151.184 62.5799 151.061 63.2074C150.926 63.8974 150.804 64.3974 150.446 64.5749C149.961 64.8149 149.739 64.7899 149.479 64.7599C148.744 64.6774 148.184 64.8174 147.519 65.7674L147.518 65.7682C146.796 66.7975 146.645 67.0123 143.721 66.4499C141.259 65.9774 140.581 66.0599 139.899 66.9174L139.896 66.9205C139.8 67.0413 139.735 67.1232 139.584 67.2174C139.468 67.2901 139.359 67.3591 139.253 67.4262C139.206 67.4561 139.16 67.4856 139.114 67.5149C138.349 68.0024 137.686 68.4224 135.756 69.3874C134.489 70.0199 133.954 70.5124 133.844 71.1449C133.736 71.7697 134.131 72.1822 134.299 72.3573L134.326 72.3849C134.636 73.0199 135.669 73.5574 136.509 73.6774C137.606 73.8349 138.566 73.4124 139.206 72.4874C140.341 70.8474 140.846 70.2799 142.481 69.8449C143.079 69.6874 143.661 70.0674 144.484 70.6674C145.291 71.2574 146.209 71.9224 147.261 71.5024C148.245 71.109 148.578 70.0734 148.823 69.3143L148.826 69.3049C148.838 69.2708 148.85 69.234 148.862 69.1958C148.899 69.0825 148.94 68.9564 148.981 68.8499C149.819 69.2249 150.531 69.2899 151.149 69.0474C151.734 68.8174 152.166 68.3374 152.436 67.6174C152.562 67.2788 152.635 66.8987 152.711 66.4963L152.714 66.4824C152.941 65.2824 153.104 64.9349 153.436 64.9349C153.934 64.9349 154.121 64.9349 154.121 66.6599V67.7449L155.266 67.4974L155.28 67.4944C157.038 67.1165 157.847 66.9426 159.011 66.0749C159.221 66.0024 159.934 66.0924 160.409 66.1524C161.999 66.3574 164.404 66.6624 165.411 64.4224C165.704 63.7749 165.721 63.7799 166.676 64.0724C167.609 64.3574 169.016 64.7874 170.664 63.7674C171.506 63.2474 171.791 63.2249 171.856 63.2299C171.905 63.2346 172.071 63.3979 172.195 63.5192L172.221 63.5449C172.616 63.9399 173.214 64.5349 174.361 64.8974C175.084 65.1249 175.166 65.4799 175.231 66.5174L175.231 66.5184C175.286 67.3858 175.362 68.5751 176.599 69.1449C176.819 69.2474 176.921 69.3799 176.959 69.6074C177.029 70.0374 176.816 70.5599 176.664 70.7699C176.379 70.8549 176.014 71.0874 175.791 71.7024C175.479 72.5649 175.459 74.2124 176.409 75.0024C176.501 75.0799 176.599 75.4449 176.474 75.7874C176.376 76.0549 176.251 76.0549 176.189 76.0549C175.269 76.0549 174.619 76.2849 174.199 76.7599C173.806 77.2049 173.661 77.8074 173.761 78.5974C173.844 79.2599 174.264 79.8274 174.909 80.1549C175.794 80.6024 176.974 80.5549 177.914 80.0324C179.093 79.3752 178.791 78.3032 178.646 77.788L178.646 77.7874C178.506 77.2849 178.449 77.0299 178.716 76.6624C179.045 76.2116 179.247 76.0933 179.481 75.9565L179.484 75.9549C180.041 75.6299 180.471 75.2949 180.919 73.9549C181.061 73.5224 181.211 72.8874 180.856 72.3624C180.491 71.8249 179.881 71.7874 179.476 71.7649C178.929 71.7326 178.926 71.72 178.867 71.4315L178.866 71.4274C178.856 71.3699 178.849 71.3224 178.846 71.2849C179.031 71.2824 179.379 71.3424 179.749 71.4974L181.071 72.0549L180.961 70.6499C181.016 70.4724 181.606 69.8799 183.726 69.8799H184.356L184.556 69.2824C184.869 68.3397 185.388 67.7505 186.162 67.4937C187.709 71.232 189.012 75.0965 190.052 79.0674C189.027 79.2226 187.834 79.9084 187.429 81.5299C187.144 82.6699 186.649 83.4574 186.346 83.7874C185.909 83.4849 184.876 83.1099 182.134 82.9149C178.874 82.6824 177.846 83.0074 177.524 83.2224C176.809 83.6999 176.839 84.3199 176.884 84.5649C177.084 85.6424 178.604 86.0924 179.249 86.2349C179.744 86.3449 179.994 87.6324 179.994 90.0599V91.1799L181.081 90.9074C182.826 90.4699 183.354 87.8549 183.509 86.6174C183.964 86.4999 184.826 86.5224 185.741 87.8299L186.339 88.6849L187.076 87.9474C188.354 86.6699 189.154 85.0424 189.511 84.0549C190.226 83.7346 190.87 83.627 191.133 83.689C191.169 83.8613 191.204 84.0338 191.238 84.2064C191.154 84.6718 190.844 85.2922 190.379 85.8874L191.681 87.0524C191.702 87.0324 191.724 87.0108 191.75 86.9884C192.165 89.4643 192.48 91.9743 192.689 94.514C192.273 95.1912 191.886 95.6483 191.691 95.7549C191.639 95.7799 191.381 95.7999 190.919 95.5849C189.981 95.1524 188.839 94.0549 188.469 92.7999L188.354 92.4049L187.976 92.2424C187.504 92.0374 186.981 92.0424 186.466 92.2524C184.644 92.9999 183.196 96.3399 182.924 97.0024L184.351 97.9524C184.674 97.6299 185.881 96.8174 187.586 96.9074C187.864 96.9224 187.984 96.9799 188.009 97.0099C188.171 97.2024 188.059 98.1199 187.984 98.7274L187.982 98.7399C187.867 99.6802 187.725 100.85 187.941 102.037L188.239 103.68L189.419 102.5C190.961 100.957 191.834 100.902 192.759 100.845C192.836 100.84 192.914 100.835 192.992 100.829C192.995 101.049 192.997 101.269 192.998 101.489C192.833 101.837 192.462 102.364 191.641 102.795L188.954 104.21L191.981 104.442C192.459 104.48 192.666 104.832 192.746 105.04C192.959 105.59 192.856 106.53 191.929 107.52L191.074 108.43L192.221 108.922C192.401 109 192.57 109.081 192.726 109.166C192.713 109.328 192.7 109.49 192.686 109.652C191.124 109.268 189.097 109.098 187.434 109.475C184.095 110.232 184.558 112.972 184.931 115.177L184.931 115.18C184.979 115.462 185.026 115.752 185.071 116.045L185.184 116.79H185.936C186.551 116.79 187.004 116.702 187.331 116.637C188.059 116.492 188.336 116.44 191.324 119.42C191.327 119.427 191.33 119.434 191.334 119.44C190.706 122.666 189.908 125.831 188.947 128.925C188.458 129.246 187.883 129.591 187.206 129.96L185.169 131.07L187.431 131.58C187.679 131.635 187.861 131.718 187.997 131.813C187.279 133.876 186.489 135.905 185.629 137.897C183.349 138.2 179.972 138.681 176.819 139.22L176.884 140.952C178.957 141.146 180.825 143.332 181.982 145.378C181.942 145.451 181.901 145.525 181.861 145.598C181.111 145.418 180.042 145.109 178.556 144.585L177.674 146.055C178.826 147.115 179.511 148.138 179.905 148.981C179.78 149.187 179.655 149.391 179.529 149.595L177.584 149.04L177.316 149.137C176.729 149.35 175.819 150.07 175.461 151.51C173.992 150.999 171.94 150.762 169.94 150.53L169.916 150.527C168.851 150.405 167.841 150.287 166.979 150.137L164.804 149.76L166.129 151.525C166.526 152.052 167.231 152.425 168.126 152.895C168.931 153.317 169.854 153.802 170.654 154.465C168.571 153.942 165.991 152.912 164.701 152.082C163.206 151.122 161.376 151.47 159.906 151.75L159.894 151.752C159.276 151.869 158.689 151.98 158.329 151.947C157.631 151.885 157.116 152.027 156.751 152.387C156.218 152.913 156.271 153.624 156.313 154.2L156.314 154.207C156.326 154.36 156.336 154.507 156.336 154.637C156.336 155.072 156.336 156.392 160.951 156.552L161.216 156.562L162.869 155.545C162.906 155.562 162.946 155.59 162.989 155.63C163.129 155.76 163.359 156.107 163.359 156.977V157.852H164.234C166.994 157.852 168.396 160.657 168.856 162.492C168.651 162.612 168.361 162.73 168.001 162.73C167.641 162.73 166.919 162.507 166.281 162.31L166.277 162.309C164.874 161.877 163.766 161.536 163.094 162.207C162.354 162.947 162.96 163.853 163.288 164.344L163.289 164.345C163.349 164.435 163.431 164.557 163.496 164.667C163.039 164.762 162.156 164.667 161.421 164.587L161.38 164.583C160.668 164.507 159.86 164.42 159.031 164.42C158.574 164.42 158.454 164.327 158.454 164.327C158.39 164.249 158.369 163.874 158.357 163.643L158.356 163.632L158.356 163.623C158.328 163.128 158.294 162.514 157.994 161.915C157.666 161.255 157.259 160.87 156.754 160.732C155.999 160.527 155.359 160.945 154.739 161.35C154.702 161.374 154.665 161.398 154.627 161.422C154.556 161.468 154.483 161.515 154.409 161.562C154.325 161.615 154.244 161.667 154.165 161.718C154.102 161.759 154.04 161.799 153.979 161.837L153.978 161.838C153.218 162.325 152.716 162.647 151.926 162.74C151.831 162.697 151.619 162.41 151.491 162.238C151.064 161.658 150.416 160.78 149.154 160.78C148.159 160.78 147.506 160.972 146.931 161.142C146.561 161.252 146.211 161.355 145.759 161.412C145.731 161.267 145.706 161.072 145.689 160.925C145.591 160.12 145.386 158.442 143.564 158.442C142.171 158.442 141.414 159.08 140.861 159.545C140.469 159.877 140.299 160.002 140.069 160.002C139.446 159.942 136.831 158.245 134.359 156.292L134.114 156.097L133.801 156.102C132.701 156.125 128.826 156.23 125.211 156.687C120.649 157.265 119.436 158.035 119.046 158.805C115.976 161.612 107.974 164.42 104.314 164.42H103.781L103.536 164.892C101.844 168.156 104.255 186.74 105.058 192.529C104.208 192.553 103.355 192.565 102.5 192.565C100.642 192.565 98.797 192.509 96.9666 192.399C97.2578 190.842 97.5627 188.037 97.7962 182.852C98.1087 175.9 98.1337 168.54 98.1337 166.45V166.062L93.6512 161.987C93.2762 161.385 92.2587 159.95 91.0162 159.917C90.6712 159.912 90.0162 160.005 89.5112 160.765C89.2097 161.218 88.2453 161.356 87.2193 161.503L87.2087 161.505L87.205 161.505C85.8609 161.698 84.3376 161.916 83.1687 162.927C82.5537 163.46 81.3437 163.162 80.1762 162.872C78.6637 162.497 76.7812 162.032 75.9387 163.717C75.1612 165.267 70.4987 167.155 69.4237 167.155H69.3962C69.1937 167.05 68.7837 166.252 70.0337 160.795L68.4437 160.127C66.6862 162.872 59.8462 163.705 57.6612 162.44C57.4262 162.305 57.4212 162.207 57.4187 162.15C57.3812 161.482 58.6337 159.997 60.2112 158.835L61.2537 158.067L60.1537 157.387C59.0237 156.687 56.2662 155.715 53.1112 156.502C50.8737 157.062 48.5862 155.68 46.5712 154.46C45.7112 153.94 44.8962 153.447 44.1537 153.157C43.4162 152.87 43.0737 152.58 42.8012 152.347C41.8987 151.577 41.2937 151.562 39.7112 152.265C37.5887 153.207 36.2462 152.8 34.9437 152.257C34.5887 152.11 34.5137 151.915 34.3712 151.21C34.2387 150.542 34.0537 149.632 33.1087 149.065C33.0987 149.06 33.0887 149.052 33.0787 149.047C33.0926 149.002 33.1097 148.946 33.1249 148.898C33.1288 148.886 33.1326 148.874 33.1362 148.862C33.3012 148.352 33.6437 147.29 32.3937 146.38C31.2812 145.57 30.2012 145.787 29.4887 145.932C29.4112 145.947 29.3212 145.967 29.2337 145.982C29.2513 145.955 29.2695 145.928 29.2872 145.902C29.3045 145.876 29.3213 145.851 29.3362 145.827L29.3407 145.821C29.6874 145.299 30.1183 144.652 30.0187 143.862C29.869 142.662 28.7951 142.481 28.2765 142.393L28.2737 142.392C27.8762 142.325 27.6262 142.275 27.4762 142.1C26.0337 140.415 23.6687 142.135 22.6587 142.87C22.4912 142.992 22.3562 143.045 22.2537 143.025C21.9257 142.961 21.5105 142.36 21.2043 141.876C21.1713 141.809 21.1384 141.742 21.1055 141.674C21.1708 141.63 21.2411 141.587 21.3023 141.549L21.3287 141.532C21.9362 141.155 23.1987 140.37 22.7037 138.882C22.089 137.038 20.7199 137.192 19.72 137.305L19.7187 137.305C19.5312 137.326 19.3392 137.348 19.1413 137.361C18.7544 136.448 18.3821 135.528 18.0246 134.601C18.3474 134.385 18.7203 134.169 19.1337 133.97L19.4987 133.795L19.6012 133.402C20.2012 131.1 19.4587 130.627 19.2137 130.472C18.8537 130.245 18.2512 130.122 17.4137 130.82C17.2215 130.98 16.9931 131.057 16.7499 131.076C16.2269 129.529 15.7446 127.964 15.3042 126.382C15.6441 126.079 16.2162 125.925 17.3987 125.997C19.8362 126.147 21.4262 125.127 25.0987 122.595L26.0337 121.95L25.1712 121.21C24.4325 120.576 23.6366 120.358 22.7163 120.106L22.7112 120.105L22.7044 120.103C22.2486 119.979 21.7282 119.836 21.1287 119.622C19.7017 119.111 18.7577 119.921 17.9985 120.573L17.9937 120.577L17.992 120.579C17.385 121.101 16.7553 121.643 15.7662 121.79C15.0712 121.892 14.7162 121.912 14.5362 121.905C14.5328 121.874 14.5295 121.841 14.5262 121.808C14.522 121.766 14.5178 121.725 14.5137 121.687C14.4937 121.482 14.4687 121.227 14.4162 120.937C14.2868 120.223 14.0017 119.698 13.6393 119.3C12.8476 115.195 12.3334 110.99 12.117 106.707C12.2286 106.536 12.3577 106.362 12.5062 106.19C13.1887 105.4 14.3962 104.517 16.2862 104.805L17.2912 104.957V103.94C17.2912 103.355 17.2912 102.747 20.5537 102.34L20.8812 102.3L21.1012 102.052C22.1637 100.847 24.7262 101.752 26.0912 102.605L28.1537 103.895L27.3837 101.587C27.1962 101.02 26.4487 100.205 24.9187 99.6174C24.4544 99.4377 24.3216 98.5503 24.2043 97.7663L24.2037 97.7624C24.0587 96.7874 23.8937 95.6849 22.8662 95.4274C22.3787 95.3074 21.6862 94.2449 21.3012 92.4549C20.9487 90.8174 20.3387 90.5024 19.2612 90.4724C18.9962 90.4649 18.6987 90.4549 18.3162 90.3599C18.0012 90.2799 17.7812 90.1749 17.7287 90.0774C17.6037 89.8449 17.7412 89.1599 18.1337 88.0374C18.1593 88.063 18.1849 88.0893 18.2099 88.1149C18.2336 88.1393 18.2567 88.163 18.2787 88.1849C18.8262 88.7449 19.5762 89.5099 20.6637 89.7274C21.4609 89.8873 21.9932 90.8791 22.558 91.9311L22.5587 91.9324L22.563 91.9405C22.9792 92.7155 23.4108 93.5193 24.0212 94.0674C25.4587 95.3599 27.5887 94.4724 28.6212 93.7424L28.6812 93.6999L28.7337 93.6474C29.0462 93.3349 29.1562 92.8974 29.0262 92.4774C28.7812 91.6724 27.7487 91.1374 25.6812 90.7399C24.2982 90.4753 24.1441 89.914 23.8649 88.8969L23.8621 88.8868C23.6199 88.0052 23.3185 86.9083 22.0587 86.1674C21.3171 85.734 21.1923 85.5511 21.1774 85.5292C21.1769 85.5284 21.1762 85.5274 21.1762 85.5274C21.1691 85.4917 21.1755 85.3702 21.1804 85.2766L21.1812 85.2624L21.1813 85.2595C21.2038 84.8394 21.2378 84.2051 20.8737 83.2349C20.0087 80.9299 18.5312 81.2524 16.9662 81.5949L16.9262 81.6036C16.476 81.7015 15.9663 81.8124 15.3812 81.8949C14.7687 81.9824 14.4437 82.0099 14.2737 82.0099C14.2662 81.9874 14.2562 81.9624 14.2487 81.9399C14.2481 81.9382 14.2475 81.9365 14.2469 81.9348ZM14.5944 123.668C14.6743 123.994 14.7559 124.319 14.8393 124.644C15.5222 124.307 16.4019 124.191 17.5487 124.262C19.1012 124.36 20.1112 123.902 22.9412 121.99C22.7912 121.944 22.6293 121.899 22.4522 121.85C22.3991 121.836 22.3446 121.82 22.2887 121.805L22.2174 121.785C21.7449 121.655 21.2116 121.508 20.5787 121.282C20.1512 121.13 19.9287 121.265 19.1737 121.917C18.4912 122.505 17.5537 123.31 16.0637 123.532C15.4744 123.62 14.9944 123.673 14.5944 123.668ZM17.3448 132.778C17.3664 132.838 17.3881 132.898 17.4098 132.958C17.6411 132.816 17.8553 132.695 18.0337 132.6C18.0387 132.575 18.0437 132.552 18.0462 132.527C17.8181 132.645 17.583 132.727 17.3448 132.778ZM19.8835 139.063C20.0405 139.413 20.1996 139.761 20.3609 140.109C20.3883 140.092 20.4156 140.075 20.4427 140.058L20.4437 140.057C21.1405 139.625 21.1162 139.553 21.0813 139.448L21.0812 139.447C20.9695 139.114 20.5937 138.983 19.9537 139.055L19.9051 139.06C19.8979 139.061 19.8907 139.062 19.8835 139.063ZM22.6853 144.762C36.8621 171.208 63.7982 189.79 95.2634 192.28C95.9248 188.943 96.4078 178.676 96.4187 166.852L92.3187 163.125L92.2512 163.012C91.8162 162.275 91.2837 161.775 91.0462 161.695C91.0408 161.7 91.0354 161.707 91.0296 161.715C91.0219 161.726 91.0136 161.738 91.0037 161.752C90.2662 162.857 88.8562 163.06 87.4912 163.255C86.3312 163.42 85.1312 163.592 84.3487 164.267C83.0487 165.392 81.2437 164.947 79.7912 164.587C78.3837 164.24 77.7237 164.147 77.5387 164.517C76.3362 166.925 70.3137 169.25 68.9762 168.865C67.4437 168.427 67.0912 166.975 67.8187 163.025C64.4912 164.97 59.0762 165.277 56.8212 163.972C55.9512 163.47 55.7362 162.765 55.7087 162.262C55.6312 160.86 56.9687 159.36 58.0687 158.372C56.9787 158.027 55.3537 157.77 53.5737 158.215C50.6262 158.95 47.8962 157.3 45.7037 155.972L45.6647 155.949C44.8842 155.478 44.1488 155.034 43.5562 154.802C42.5412 154.407 42.0362 153.977 41.7037 153.692C41.6262 153.627 41.5337 153.547 41.4887 153.517C41.4162 153.517 41.1737 153.56 40.4612 153.877C37.7062 155.102 35.8412 154.522 34.3112 153.885C33.0603 153.363 32.8418 152.285 32.6968 151.57L32.6962 151.567C32.5762 150.972 32.5062 150.732 32.2487 150.577C31.0237 149.842 31.3637 148.785 31.5112 148.335L31.5133 148.329C31.5485 148.22 31.606 148.044 31.5962 147.99C31.5962 147.99 31.5637 147.922 31.4037 147.805C30.9362 147.465 30.5187 147.527 29.8737 147.657L29.8662 147.659C29.2919 147.774 28.5108 147.93 27.8487 147.38C26.8187 146.52 27.5612 145.402 27.9187 144.867C28.0412 144.682 28.2512 144.365 28.3087 144.18C28.2426 144.165 28.1622 144.151 28.0902 144.139C28.0669 144.135 28.0445 144.131 28.0237 144.127L28.0214 144.127C27.5164 144.042 26.7553 143.914 26.1862 143.25C26.0687 143.112 25.5937 142.94 23.7262 144.297C23.3848 144.546 23.0365 144.701 22.6853 144.762ZM106.812 192.464C130.873 191.335 152.476 180.811 168.036 164.477C168.025 164.477 168.013 164.477 168.001 164.477C167.383 164.477 166.61 164.24 165.79 163.988L165.764 163.98C165.541 163.912 165.256 163.822 164.981 163.747C165.331 164.355 165.696 165.322 164.739 166.005C163.886 166.612 162.656 166.48 161.234 166.325C160.521 166.247 159.784 166.167 159.031 166.167C156.745 166.167 156.656 164.582 156.609 163.729L156.609 163.725C156.589 163.337 156.569 162.972 156.429 162.695C156.371 162.577 156.324 162.502 156.289 162.457C156.139 162.525 155.889 162.687 155.696 162.815C155.581 162.89 155.461 162.967 155.336 163.047C155.191 163.137 155.054 163.225 154.921 163.31L154.914 163.315C154.054 163.865 153.313 164.34 152.109 164.475C151.054 164.595 150.469 163.802 150.084 163.277C149.691 162.747 149.499 162.53 149.154 162.53C148.418 162.53 147.964 162.663 147.44 162.816L147.426 162.82L147.411 162.824C146.955 162.958 146.436 163.111 145.724 163.175C144.219 163.31 144.032 161.79 143.952 161.138L143.951 161.135C143.836 160.19 143.761 160.19 143.564 160.19C142.811 160.19 142.451 160.493 141.992 160.879L141.989 160.882C141.529 161.27 140.959 161.75 140.054 161.75C138.679 161.75 135.199 159.17 133.521 157.857C126.554 158.015 121.269 158.885 120.599 159.625L120.546 159.79L120.384 159.945C117.196 162.997 109.284 165.882 104.929 166.145C104.161 169.21 105.26 181.422 106.812 192.464ZM170.48 161.808C172.633 159.359 174.656 156.794 176.538 154.122L175.694 153.537C174.836 152.945 172.801 152.635 170.781 152.39C171.829 153.072 172.879 153.97 173.581 155.257L174.286 156.552H172.811C170.309 156.552 165.594 154.735 163.759 153.555C162.851 152.972 161.464 153.235 160.239 153.467L160.237 153.468C159.49 153.61 158.783 153.745 158.174 153.69C158.121 153.685 158.076 153.682 158.039 153.682C158.039 153.802 158.051 153.957 158.059 154.075C158.063 154.123 158.066 154.172 158.07 154.223C158.072 154.265 158.075 154.307 158.079 154.35C158.486 154.53 159.546 154.727 160.751 154.79L162.391 153.78L162.599 153.762C163.151 153.717 163.724 153.925 164.166 154.332C164.506 154.647 164.901 155.202 165.046 156.157C168.205 156.608 169.863 159.639 170.48 161.808ZM177.066 153.365C177.573 152.629 178.069 151.887 178.554 151.136L177.736 150.902C177.471 151.135 177.066 151.707 177.066 152.817V153.365ZM180.941 147.231C180.952 147.212 180.962 147.194 180.973 147.176C180.946 147.169 180.92 147.162 180.894 147.155C180.91 147.18 180.926 147.205 180.941 147.231ZM182.942 143.572C183.587 142.323 184.205 141.057 184.793 139.775C183.423 139.963 181.796 140.197 180.114 140.457C181.239 141.287 182.192 142.425 182.942 143.572ZM191.716 117.342C192.049 115.384 192.319 113.405 192.524 111.407C191.285 111.074 189.398 110.817 187.826 111.175C186.271 111.527 186.214 112.237 186.661 114.882C186.663 114.895 186.665 114.908 186.667 114.921C186.67 114.939 186.673 114.957 186.676 114.975C186.76 114.962 186.842 114.946 186.921 114.93C186.948 114.925 186.975 114.92 187.001 114.915C188.403 114.641 189.119 114.833 191.716 117.342ZM192.952 99.074C192.93 98.399 192.9 97.7258 192.864 97.0546C192.705 97.1867 192.551 97.2878 192.406 97.3524C191.796 97.6224 191.031 97.5599 190.186 97.1699C190.061 97.1124 189.934 97.0449 189.801 96.9699C189.884 97.5464 189.806 98.198 189.726 98.8724L189.719 98.9374C189.674 99.2974 189.629 99.6774 189.601 100.065C190.868 99.2094 191.829 99.1477 192.646 99.0953L192.651 99.0949C192.753 99.0886 192.852 99.0822 192.952 99.074ZM190.75 81.9223C190.663 81.5382 190.573 81.1551 190.481 80.7728C190.15 80.7789 189.39 80.9104 189.131 81.9449C189.096 82.0824 189.059 82.2199 189.016 82.3599C189.486 82.1668 190.118 81.961 190.75 81.9223ZM185.473 65.8732C175.886 43.9244 157.845 26.5136 135.465 17.7564C135.307 18.7047 134.507 19.4095 133.664 20.1524L133.63 20.1819C133.135 20.6208 132.608 21.0873 132.154 21.6399C134.091 21.2874 136.154 22.0999 137.924 22.7974C137.974 22.8171 138.024 22.8369 138.074 22.8566C138.278 22.9367 138.481 23.0162 138.681 23.0924C141.181 24.0449 141.034 26.5149 140.914 28.4974C140.891 28.8599 140.871 29.2099 140.864 29.5449C142.016 29.0299 143.076 28.8074 145.404 30.0199C146.269 30.4724 146.791 31.0499 146.956 31.7349C147.214 32.8174 146.516 33.7949 145.954 34.5799C145.938 34.6025 145.921 34.6264 145.903 34.6513C145.86 34.7116 145.812 34.7776 145.766 34.8449C147.531 35.1849 148.864 37.3199 149.586 38.6724C150.971 38.2349 152.091 38.2999 152.921 38.8649C154.354 39.8399 154.346 41.9099 154.329 42.8599C155.669 42.5999 157.184 43.1249 159.326 43.8699C162.014 44.8049 161.736 48.7874 161.309 51.1499C161.694 51.0874 162.129 51.0649 162.611 51.0999C163.029 51.1299 163.814 51.3399 164.369 52.4174C165.229 54.0899 165.181 57.0999 164.354 59.1474C164.496 59.2824 164.596 59.4274 164.666 59.5524C165.136 60.4149 164.766 61.4474 164.406 62.4449C164.392 62.4862 164.377 62.5277 164.362 62.5691C164.304 62.7332 164.246 62.8972 164.194 63.0549C165.118 61.7588 166.396 62.1491 167.199 62.3941L167.201 62.3949C168.049 62.6549 168.781 62.8774 169.756 62.2749C171.691 61.0774 172.496 61.3299 173.469 62.3024L173.474 62.3076C173.812 62.6435 174.162 62.9911 174.899 63.2249C176.821 63.8309 176.926 65.4342 176.988 66.3951L176.989 66.4024C177.041 67.2399 177.104 67.4424 177.344 67.5524C178.159 67.9299 178.646 68.6499 178.721 69.5349C179.006 69.5174 179.294 69.5499 179.556 69.6024C179.619 69.5074 179.691 69.4174 179.771 69.3324C180.434 68.6174 181.564 68.2149 183.134 68.1374C183.557 67.2038 184.271 66.3118 185.473 65.8732ZM128.833 15.4557C128.586 15.3807 128.338 15.3067 128.091 15.2338C128.107 15.3703 128.12 15.4979 128.131 15.6116L128.131 15.6149C128.146 15.7824 128.169 16.0099 128.201 16.1999C128.304 16.0849 128.411 15.9574 128.496 15.8524L128.497 15.8515C128.602 15.7254 128.714 15.5916 128.833 15.4557ZM122.683 13.8239C122.107 13.6927 121.53 13.5671 120.95 13.447C121.205 13.9875 121.436 14.5548 121.654 15.1374C121.67 15.1146 121.686 15.0907 121.702 15.0678C121.71 15.0556 121.718 15.0437 121.726 15.0324L121.726 15.0322C121.978 14.6665 122.281 14.2265 122.683 13.8239ZM103.997 11.5771C103.499 11.569 103 11.5649 102.5 11.5649C100.72 11.5649 98.9528 11.6163 97.1986 11.7176C97.5959 12.6731 97.741 13.8077 97.5762 14.8699C97.6214 14.9355 97.6632 14.9994 97.7026 15.0596C97.7307 15.1027 97.7576 15.1439 97.7837 15.1824C97.8787 15.3299 97.9962 15.5074 98.0637 15.5824C98.5187 15.5524 100.129 14.6399 100.981 14.1524C101.703 13.1593 102.76 12.2993 103.997 11.5771ZM87.4805 12.8056C58.6758 17.6168 34.4778 36.0335 21.717 61.2252C22.698 60.5163 24.2597 60.2055 25.7112 60.4774C26.5737 60.6399 27.0087 61.1174 27.2212 61.4899C27.3937 61.7924 27.4787 62.1174 27.5062 62.4399C27.6887 62.4224 27.8887 62.4174 28.1062 62.4249C28.5012 60.3224 30.5112 57.7924 32.3737 57.3649C32.9162 57.2399 33.3637 57.2024 33.7537 57.2599C33.7107 57.1207 33.6744 56.9881 33.6407 56.8651C33.6332 56.8379 33.6259 56.8111 33.6187 56.7849C33.6132 56.7651 33.6078 56.7453 33.6025 56.7257C33.5462 56.5204 33.4937 56.3289 33.4412 56.1874C33.1537 55.4199 33.0862 54.2524 33.7612 53.2799C34.1112 52.7749 34.7587 52.1974 35.9387 51.9224C34.7912 51.7149 33.8262 50.2199 33.6062 48.8199C33.3512 47.1874 34.0412 45.8749 35.4637 45.2249C35.7237 44.4149 36.2937 43.8324 37.0562 43.6199C38.0762 43.3374 39.2337 43.7524 40.2562 44.7399C40.8562 44.5099 41.5862 44.5324 42.3037 44.8324C43.5637 45.3574 44.3212 46.5049 44.2312 47.7549L44.2212 47.8774L44.1787 47.9924C44.0287 48.4074 43.8262 48.7924 43.6462 49.1324C43.0462 50.2774 43.0737 50.4199 43.5187 50.7849C44.7912 51.8274 44.4987 52.6724 44.1262 53.3824C43.9512 53.7124 43.8012 53.9999 43.8387 54.5174C43.9037 55.4099 44.0837 55.5149 45.4737 56.0599C45.7962 56.1849 46.1612 56.3299 46.5662 56.5074C47.0512 56.7199 47.4162 56.9274 47.6987 57.1424C47.6362 56.9124 47.5887 56.6799 47.5487 56.4449C47.4287 55.7674 47.3562 55.4974 47.0812 55.3399C45.0293 54.1678 45.6958 50.732 46.3406 47.4079L46.3412 47.4049C46.3532 47.3429 46.3651 47.2813 46.3769 47.2201C46.4789 46.6937 46.5753 46.1955 46.6537 45.7274C47.0883 43.117 49.4949 43.3121 50.7906 43.4172L50.7937 43.4174C51.1912 43.4499 51.8437 43.5024 52.0512 43.4224C52.1187 43.2549 52.1037 43.2374 51.8237 42.9299L51.823 42.9292C51.3879 42.449 50.5791 41.5566 51.4112 39.8924C51.8587 38.9974 52.2787 38.5824 52.5562 38.3099C52.5661 38.3 52.5765 38.2898 52.5869 38.2795C52.6187 38.2482 52.6511 38.2162 52.6737 38.1899C52.6662 38.0849 52.6162 37.8249 52.4037 37.1824C52.3235 36.94 52.248 36.7267 52.1806 36.5364C52.1618 36.4833 52.1436 36.432 52.1262 36.3824C51.4562 34.5074 51.6037 34.1649 53.0712 32.3324C53.9188 31.2729 55.2908 30.6982 56.5058 30.1893L56.5261 30.1808C57.7174 29.6823 58.8392 29.213 59.0137 28.5074C59.7457 25.5844 63.0066 26.1941 64.9596 26.5591L64.9637 26.5599C66.1937 26.7899 66.7387 27.5099 67.0387 27.9424C67.0912 27.9024 67.1537 27.8524 67.2262 27.7899C67.5587 27.5099 67.5887 27.3824 67.5887 27.3799C67.5937 27.3099 67.4762 27.0624 67.3962 26.8999L67.3919 26.8909C67.1194 26.3184 66.7098 25.4581 66.9287 24.1549C67.3112 21.8674 68.0962 21.4674 69.5712 20.9074C69.8612 20.7974 70.1887 20.6724 70.5612 20.5099C72.2005 19.7927 73.1979 21.0913 73.6781 21.7166L73.6787 21.7174C73.7062 21.7524 73.7362 21.7924 73.7662 21.8324C73.7737 21.8199 73.7787 21.8099 73.7862 21.7974C75.3087 19.0599 78.5537 16.1499 81.5687 16.1499C82.5587 16.1499 83.2337 16.4274 83.7087 16.8274C83.6188 15.4213 84.4795 14.9459 85.4557 14.4065L85.4587 14.4049L85.4677 14.4C85.9635 14.1259 86.5681 13.7917 87.3062 13.2524C87.3556 13.0994 87.4137 12.9504 87.4805 12.8056ZM20.7185 63.2595C20.7371 63.4126 20.7737 63.5659 20.8287 63.7174C20.9722 64.1109 20.8487 64.5241 20.7055 65.0029L20.7012 65.0174C20.5362 65.5624 20.3287 66.2574 20.5862 66.9624C20.3962 67.0724 20.2112 67.2349 20.0687 67.4724C19.7762 67.9574 19.7687 68.5924 20.0412 69.4124L20.1962 69.8749C20.2809 70.1353 20.3638 70.3814 20.4418 70.6131C20.4559 70.655 20.4699 70.6964 20.4837 70.7374C19.6891 70.4077 18.7658 70.123 17.8289 70.0416C18.702 67.7344 19.6667 65.4722 20.7185 63.2595ZM185.754 95.3349C186.191 94.6649 186.644 94.1299 187.021 93.9199H187.024C187.221 94.3649 187.476 94.7824 187.766 95.1624C187.743 95.1605 187.72 95.1586 187.698 95.1578C187.69 95.1576 187.683 95.1574 187.676 95.1574C186.974 95.1199 186.329 95.1949 185.754 95.3349ZM24.8493 92.3458C24.9716 92.5179 25.0939 92.6676 25.2237 92.7824C25.5762 93.0999 26.1837 93.0099 26.7262 92.8049C26.4162 92.7024 25.9837 92.5874 25.3812 92.4724C25.1924 92.4352 25.0159 92.3929 24.8493 92.3458ZM179.856 84.5823C180.936 84.9373 181.404 86.013 181.604 87.3649C181.706 86.9374 181.784 86.4599 181.819 85.9624L181.849 85.5349L182.206 85.2974C182.599 85.0349 183.146 84.8449 183.766 84.8299C182.581 84.6678 181.003 84.5728 179.856 84.5823ZM186.474 85.9849C186.354 85.8674 186.231 85.7599 186.109 85.6624H186.111C186.241 85.6799 186.379 85.6799 186.516 85.6549C186.599 85.6399 186.681 85.6199 186.761 85.5899C186.669 85.7224 186.574 85.8549 186.474 85.9849ZM175.501 78.3774C175.456 78.0174 175.516 77.9149 175.516 77.9149V77.9174C175.516 77.9174 175.644 77.8049 176.194 77.8049C176.419 77.8049 176.631 77.7699 176.831 77.7049C176.869 77.9149 176.921 78.1024 176.966 78.2624C176.989 78.3424 177.016 78.4424 177.034 78.5199C176.559 78.7699 176.009 78.7474 175.704 78.5924C175.579 78.5274 175.511 78.4574 175.501 78.3774ZM177.393 72.4633C177.316 72.8538 177.359 73.5103 177.534 73.6549C177.846 73.9149 178.069 74.2899 178.189 74.7099C178.344 74.5949 178.484 74.5124 178.606 74.4424C178.851 74.2999 178.979 74.2249 179.229 73.4999C178.717 73.4625 177.856 73.3303 177.393 72.4633ZM137.031 71.9574C136.551 71.9874 136.056 71.7124 135.891 71.5674V71.5699C135.859 71.5049 135.821 71.4449 135.784 71.3899C135.939 71.2849 136.179 71.1424 136.554 70.9549C138.411 70.0249 139.146 69.5749 139.886 69.1074C139.059 69.6924 138.494 70.4649 137.781 71.4924C137.574 71.7899 137.336 71.9374 137.031 71.9574ZM49.6537 68.4174C49.5837 68.2349 49.5162 68.0699 49.4537 67.9224V67.9199C49.9387 67.9074 50.3762 67.8599 50.7362 67.8199C51.4895 67.7382 51.907 67.8891 51.9887 68.2724C52.2487 69.4849 52.7512 70.3674 53.4862 70.9099C51.8162 70.6849 50.3762 70.1899 50.0137 69.3149C49.8835 69.0015 49.7786 68.7349 49.6887 68.5064C49.6768 68.4761 49.6651 68.4464 49.6537 68.4174ZM143.808 68.2475C144.467 68.4842 145.039 68.899 145.516 69.2451L145.526 69.2524C145.831 69.4749 146.471 69.9399 146.624 69.8774C146.844 69.7899 147.041 69.1774 147.171 68.7724C147.224 68.6074 147.279 68.4399 147.339 68.2774C146.573 68.5816 145.542 68.56 143.808 68.2475ZM141.342 67.9298C141.322 67.9522 141.298 67.9833 141.279 68.0074L141.275 68.0124C141.135 68.1875 140.925 68.4498 140.521 68.7024C140.454 68.7449 140.386 68.7874 140.321 68.8274C140.791 68.5599 141.346 68.3399 142.041 68.1549C142.299 68.0874 142.544 68.0574 142.786 68.0599C141.797 67.8926 141.457 67.9049 141.342 67.9298ZM149.549 67.1774C149.271 67.0399 149.024 66.9899 148.811 66.9899L148.809 66.9924C148.823 66.9727 148.837 66.9529 148.851 66.9328C148.888 66.8815 148.926 66.8288 148.964 66.7749C149.079 66.6099 149.154 66.5299 149.194 66.4924C149.21 66.4937 149.228 66.4955 149.246 66.4974C149.264 66.4993 149.282 66.5012 149.299 66.5024C149.634 66.5399 150.179 66.5999 150.986 66.2599C150.931 66.5524 150.876 66.8224 150.809 67.0024C150.759 67.1349 150.656 67.3649 150.521 67.4174C150.456 67.4449 150.196 67.5024 149.549 67.1774ZM55.5258 64.4217C55.1186 63.2626 54.5767 61.7199 52.6762 61.7199V61.7174C52.4887 61.7174 52.2837 61.7324 52.0662 61.7649L51.7837 61.8074L51.7812 61.8078C50.9073 61.9401 50.216 62.0448 49.9812 61.9399C49.7687 61.8424 49.4862 61.2124 49.2362 60.6074C48.9768 59.981 48.8731 59.5126 48.7821 59.1015L48.7762 59.0749C48.7687 59.0437 48.7618 59.0124 48.7549 58.9812C48.7481 58.9499 48.7412 58.9187 48.7337 58.8874C49.3937 59.4549 50.4362 59.8674 52.1312 59.9949C53.3437 60.0849 54.3762 60.0999 55.2887 60.1124C58.2887 60.1549 59.2987 60.1699 60.3712 62.4799C61.0012 63.8349 60.7937 64.3624 60.6087 64.8249C60.1712 65.9224 60.5037 66.5774 61.4737 67.2449C61.0037 67.2099 60.4637 67.1999 59.8437 67.2149C58.6375 67.2417 57.8192 67.2826 57.2693 67.3101L57.2237 67.3124C57.1831 67.3148 57.1431 67.3166 57.1037 67.3184C57.0605 67.3204 57.018 67.3223 56.9762 67.3249C56.8912 67.0199 56.7212 66.6674 56.3937 66.2499C55.9818 65.7282 55.7519 65.0694 55.5297 64.4328L55.5258 64.4217ZM38.4512 59.9499C38.3462 59.9224 38.2437 59.9024 38.1412 59.8849C38.5837 59.8049 38.9762 59.6974 39.3437 59.5949L39.3446 59.5947C40.0966 59.3873 40.649 59.235 41.3437 59.4249C41.3387 59.6199 41.2562 59.9824 41.1987 60.2349C40.9562 61.2949 40.5062 63.2674 42.6087 64.2124C43.4812 64.6049 44.2362 65.1674 44.9612 65.7399C42.6687 64.9949 41.2912 63.8624 40.9612 62.4374C40.6862 61.2499 39.7012 60.2724 38.4512 59.9499ZM155.884 65.5749C155.869 65.5774 155.854 65.5824 155.839 65.5849V65.5649L155.836 65.5624L155.854 65.5674C155.864 65.5699 155.874 65.5749 155.884 65.5749ZM138.548 60.5126C138.074 60.8425 137.556 61.1225 137.064 61.3874C136.149 61.8799 135.491 62.2624 135.281 62.6699C135.616 62.3624 136.131 62.1499 136.939 62.1499C137.524 62.1499 138.189 62.1499 138.351 62.0349C138.359 62.0299 138.534 61.8924 138.534 60.8149C138.534 60.7133 138.539 60.6142 138.548 60.5126ZM36.4687 60.0274C36.4593 60.0118 36.4499 59.9962 36.4412 59.9799C36.5237 59.9899 36.6062 59.9974 36.6937 59.9999C36.6262 60.0224 36.5612 60.0474 36.4962 60.0749C36.4874 60.0587 36.4781 60.043 36.4687 60.0274ZM147.821 49.0401C147.771 50.5103 145.501 54.07 143.179 55.2324C143.009 55.3174 142.846 55.3974 142.694 55.4724L142.692 55.473C141.388 56.115 140.931 56.3402 140.551 57.3424C141.894 56.2024 143.524 55.4249 144.179 55.1874C144.686 55.0021 145.146 54.9809 145.518 54.9637L145.546 54.9624C146.266 54.9324 146.674 54.9149 147.356 53.2749C147.261 51.7174 147.911 49.9949 148.814 48.4249C148.634 48.5399 148.464 48.6399 148.311 48.7274L148.298 48.7353C148.128 48.8333 147.91 48.9597 147.821 49.0401ZM85.3062 19.9124C85.1462 19.7524 85.0362 19.4574 84.9287 19.1224V19.1199C85.4262 19.3799 85.9637 19.4074 86.3087 19.4249C86.3354 19.4268 86.3648 19.4284 86.3951 19.43C86.4441 19.4326 86.4958 19.4353 86.5437 19.4399C86.5112 19.8674 86.3712 20.1599 86.1612 20.2374C85.9687 20.3099 85.6312 20.2374 85.3062 19.9124Z" fill="white"/>
<path d="M36.1372 79.2695V133.815H75.3418V121.883H50.9454V112.508H73.4241V100.576H50.9454V91.2013H75.4483V79.2695H36.1372Z" stroke="white" stroke-width="0.25"/>
<path d="M82.7925 79.2695V133.815H119.653V121.883H97.6007V79.2695H82.7925Z" stroke="white" stroke-width="0.25"/>
<path fill-rule="evenodd" clip-rule="evenodd" d="M125.639 133.815H146.626C152.166 133.815 156.969 132.732 161.035 130.566C165.101 128.382 168.244 125.257 170.463 121.191C172.683 117.107 173.793 112.224 173.793 106.542C173.793 100.86 172.674 95.9865 170.437 91.9204C168.217 87.8366 165.057 84.7116 160.955 82.5454C156.871 80.3615 152.024 79.2695 146.413 79.2695H125.639V133.815ZM146.094 121.244H140.447V91.8405H145.668C148.508 91.8405 150.905 92.2755 152.859 93.1456C154.829 94.0156 156.321 95.5159 157.333 97.6466C158.363 99.7773 158.878 102.743 158.878 106.542C158.878 110.342 158.372 113.307 157.36 115.438C156.365 117.568 154.909 119.069 152.992 119.939C151.092 120.809 148.793 121.244 146.094 121.244Z" stroke="white" stroke-width="0.25"/>
<path fill-rule="evenodd" clip-rule="evenodd" d="M1 102.065C1 46.008 46.4431 0.564941 102.5 0.564941C158.557 0.564941 204 46.008 204 102.065C204 158.122 158.557 203.565 102.5 203.565C46.4431 203.565 1 158.122 1 102.065ZM13.8577 83.7332C12.6398 89.6533 12 95.7844 12 102.065C12 102.805 12.0089 103.542 12.0265 104.278C13.0732 103.434 14.3468 102.992 15.7087 103.017C16.2087 101.375 18.0887 100.922 20.0712 100.657C20.8587 99.9249 21.8637 99.6874 22.8937 99.7299C22.6846 99.1829 22.5937 98.5887 22.5153 98.0759L22.5087 98.0324L22.5084 98.0307C22.4634 97.7283 22.3985 97.292 22.3237 97.0924C20.5937 96.5249 19.8637 93.9424 19.6262 92.8324C19.5537 92.4974 19.4962 92.3249 19.4587 92.2399C19.417 92.2366 19.3687 92.2355 19.3204 92.2344C19.2962 92.2338 19.272 92.2332 19.2487 92.2324L19.2395 92.2321C18.9228 92.2222 18.4907 92.2086 17.9287 92.0699C17.0837 91.8599 16.5262 91.4824 16.2237 90.9199C15.7587 90.0549 15.9862 88.9824 16.5362 87.4224L16.5363 87.4222C16.6513 87.097 16.9564 86.2349 17.7412 86.0624C18.502 85.8928 19.0412 86.4424 19.5626 86.9738L19.5662 86.9774C19.9962 87.4174 20.4862 87.9149 21.0437 88.0274C21.3287 88.0849 21.5887 88.1774 21.8262 88.2999C21.6837 88.0549 21.4962 87.8599 21.2087 87.6899C19.6437 86.7699 19.4137 86.1949 19.4712 85.1799C19.4912 84.8424 19.5087 84.4949 19.2737 83.8649C19.052 83.2749 18.4203 83.0932 17.3787 83.3199C16.8887 83.4274 16.3337 83.5474 15.6662 83.6449C14.8924 83.7559 14.3091 83.8129 13.8577 83.7332ZM14.2469 81.9348C15.0359 78.461 16.0248 75.0632 17.2008 71.754C18.7897 71.7235 20.7234 72.7024 21.7387 73.3799L22.9262 72.1324C22.6245 71.7243 22.2763 70.6777 21.8356 69.3532L21.6662 68.8449C21.6012 68.6474 21.5737 68.5149 21.5637 68.4274C21.5887 68.4224 21.6137 68.4174 21.6337 68.4149C21.8737 68.3749 22.4387 68.2799 22.6387 67.7149C22.8487 67.1224 22.4312 66.6449 22.2737 66.4649C22.1337 66.3049 22.1437 66.1599 22.3412 65.5049C22.5287 64.8899 22.7812 64.0449 22.4387 63.1024C22.4062 63.0174 22.3937 62.9424 22.5137 62.7999C22.9212 62.3199 24.1587 61.9574 25.3537 62.1799C25.6012 62.2249 25.6512 62.3124 25.6662 62.3399C25.7812 62.5399 25.7412 63.0099 25.5687 63.4824L27.0287 64.3799C27.1712 64.2299 27.6837 64.0349 28.7112 64.2549L29.9387 64.5174L29.7612 63.2749C29.5587 61.8624 31.5087 59.3349 32.7312 59.0524C33.4145 58.8957 34.2795 59.7432 35.3262 61.5949L36.0112 62.8074L36.8262 61.9024C37.1912 61.4974 37.7062 61.5574 37.9812 61.6274C38.4937 61.7599 39.0762 62.1799 39.2237 62.8149C39.5837 64.3749 40.9087 66.4724 45.1787 67.6224C45.9562 67.8299 46.5187 67.9474 46.9312 68.0324C47.2412 68.0949 47.5612 68.1624 47.6237 68.1974C47.6947 68.2733 47.8425 68.6491 47.9871 69.0169L47.9962 69.0399C48.0962 69.2974 48.2162 69.6024 48.3687 69.9699C49.7587 73.3274 56.7812 72.7874 57.5762 72.7149L58.5662 72.6249L58.3512 71.6549C58.1512 70.7624 57.2312 69.7999 55.6762 69.7999C54.6912 69.7999 54.0112 69.4799 53.6712 67.8924C53.2162 65.7724 51.6562 65.9424 50.5162 66.0674L50.4813 66.0711C50.0923 66.1128 49.6519 66.1599 49.1762 66.1599C48.2862 66.1599 47.3887 65.4449 46.3512 64.6174L46.3294 64.6001C45.4673 63.9143 44.4911 63.1379 43.2962 62.5999C42.5987 62.2849 42.5787 61.8924 42.8737 60.6074L42.8745 60.6039C43.0647 59.768 43.4165 58.2217 41.8937 57.7524C40.6941 57.3833 39.7583 57.6411 38.8529 57.8906L38.8462 57.8924L38.8238 57.8986C38.2208 58.0642 37.5991 58.2349 36.8262 58.2349C35.9012 58.2349 35.6312 57.6174 35.2737 56.3074L35.2712 56.2982C35.1997 56.0317 35.1327 55.7823 35.0462 55.5549C34.9462 55.2849 34.8562 54.7074 35.1662 54.2599C35.5137 53.7549 36.3137 53.4874 37.4762 53.4874H38.1487L38.3212 52.8374C38.4462 52.3699 38.5562 52.2449 38.5562 52.2449C38.5643 52.2417 38.5723 52.2384 38.5798 52.2352C38.5838 52.2334 38.5876 52.2317 38.5912 52.2299C39.5923 51.7755 39.2147 50.8675 38.9374 50.2002L38.9362 50.1974C38.7987 49.8649 38.5087 49.1699 37.8237 49.0874C37.1942 49.0106 36.8473 49.4816 36.6367 49.7674L36.6312 49.7749C36.4287 50.0524 36.3262 50.1649 36.2087 50.1799C35.9137 50.0524 35.2762 49.1324 35.2762 48.1649C35.2787 47.4224 35.6612 46.9424 36.4462 46.6899L36.9687 46.5224L37.0462 45.9799C37.0862 45.7099 37.1937 45.3724 37.4937 45.2899C37.8987 45.1749 38.6462 45.4799 39.4012 46.4074L40.0562 47.2124L40.7387 46.4324C40.8712 46.2824 41.2412 46.2799 41.6012 46.4299C41.9962 46.5949 42.4387 46.9699 42.4587 47.5024C42.3512 47.7674 42.2087 48.0399 42.0712 48.3024L42.0701 48.3045C41.5501 49.297 40.7648 50.7958 42.3862 52.1224C42.5262 52.2374 42.6037 52.3174 42.6462 52.3674C42.6187 52.4224 42.5812 52.4949 42.5512 52.5524C42.3287 52.9749 41.9937 53.6124 42.0662 54.6274C42.2109 56.6535 43.4116 57.1256 44.8007 57.6718L44.8087 57.6749L44.8368 57.6859C45.1373 57.8031 45.4751 57.9349 45.8387 58.0949C46.8387 58.5324 46.8662 58.6524 47.0387 59.4399C47.1337 59.8799 47.2662 60.4824 47.5887 61.2649C48.6762 63.9099 49.4612 63.9174 52.0162 63.5299L52.2962 63.4874C53.1962 63.3524 53.3587 63.5924 53.8487 64.9974C54.1062 65.7349 54.3987 66.5699 54.9887 67.3224C55.2787 67.6924 55.2762 67.8374 55.2737 67.9449L55.2736 67.9509C55.271 68.1116 55.265 68.4786 55.5737 68.7774C55.9256 69.1193 56.2675 69.1025 57.2784 69.0527L57.2837 69.0524L57.3224 69.0504C57.8625 69.0229 58.6699 68.9818 59.8587 68.9549C61.6762 68.9149 62.4087 69.1024 62.7037 69.2699C62.8412 69.3474 62.8612 69.3724 62.9287 69.7449L62.9298 69.751C63.0174 70.2267 63.1629 71.0169 64.1537 71.4749L65.3187 72.0124L65.3937 70.7324C65.4262 70.2149 65.5512 69.8849 65.6637 69.5924C66.2787 67.9874 65.3662 67.4149 63.2462 66.2724C62.5562 65.9024 62.2762 65.6899 62.1637 65.5874C62.1787 65.5474 62.1962 65.5024 62.2112 65.4649C62.5362 64.6474 62.8087 63.6174 61.9362 61.7374C60.4012 58.4299 58.3687 58.3999 55.2912 58.3574C55.2398 58.3565 55.188 58.3557 55.1357 58.3548C54.2867 58.3407 53.3315 58.3248 52.2387 58.2424C49.5937 58.0449 49.4487 57.2399 49.2512 56.1249C49.1137 55.3499 48.9412 54.3849 47.9287 53.8074C46.9637 53.2574 47.6362 49.7949 48.0387 47.7274L48.0637 47.5986C48.1721 47.041 48.2751 46.5111 48.3587 46.0049C48.5012 45.1524 48.8837 45.0099 50.6312 45.1524C51.7387 45.2449 53.1187 45.3574 53.6337 44.1199C54.1437 42.8949 53.4662 42.1474 53.1012 41.7449L53.0995 41.743C52.7459 41.3521 52.6617 41.259 52.9587 40.6649C53.2762 40.0299 53.5487 39.7599 53.7687 39.5449C54.5812 38.7424 54.5537 38.1399 54.0462 36.6174C53.9387 36.2949 53.8412 36.0199 53.7562 35.7824C53.5662 35.2524 53.4412 34.9024 53.4787 34.7524C53.5362 34.5174 53.9437 34.0049 54.4187 33.4124C54.9887 32.6999 56.0987 32.2349 57.1712 31.7874L57.1728 31.7867C58.7098 31.1444 60.3013 30.4794 60.6912 28.9199C60.9737 27.7924 62.1837 27.8099 64.6212 28.2674C65.2032 28.3773 65.3859 28.6445 65.6181 28.9841L65.6192 28.9857C65.8217 29.2807 66.1267 29.725 66.7137 29.8049C67.3237 29.8899 67.8537 29.5224 68.3362 29.1149C69.7889 27.8869 69.2878 26.8358 68.9553 26.1383L68.9528 26.1331C68.7231 25.6513 68.5063 25.1965 68.6337 24.4324C68.8661 23.0301 68.9911 22.9824 70.1707 22.5326L70.1712 22.5324L70.2154 22.5155C70.5122 22.4022 70.8482 22.2738 71.2387 22.1024C71.5287 21.9749 71.6712 21.9999 72.2662 22.7724C72.6387 23.2574 73.1037 23.8624 73.8662 23.8049C74.5912 23.7524 75.0262 23.1124 75.2912 22.6349C76.5612 20.3524 79.3137 17.8874 81.5462 17.8874C82.6562 17.8874 82.8337 18.3174 83.1562 19.3749C83.3362 19.9649 83.5412 20.6324 84.0487 21.1399C84.8287 21.9199 85.8662 22.1974 86.7537 21.8674C87.6362 21.5374 88.1887 20.6899 88.2712 19.5424C88.3112 18.9849 88.1837 18.5374 87.8962 18.2124C87.4612 17.7199 86.8337 17.6874 86.3762 17.6649C85.6887 17.6324 85.6162 17.5924 85.5162 17.1874C85.3712 16.5999 85.4362 16.4774 85.4437 16.4649C85.5237 16.3399 85.9087 16.1274 86.2812 15.9224C86.8487 15.6099 87.6237 15.1824 88.5762 14.4574L88.8262 14.2674L88.8987 13.9624C89.0484 13.3244 89.4727 12.8174 90.0484 12.4145C91.7775 12.1766 93.5221 11.9875 95.2809 11.8487C95.8002 12.6204 96.0118 13.8447 95.7712 14.8624L95.6762 15.2599L95.9212 15.5874C96.0613 15.771 96.1734 15.9429 96.2822 16.1099L96.2937 16.1274C97.5262 18.0174 98.5687 17.5324 101.996 15.5599L102.171 15.4599L102.284 15.2924C103.34 13.7346 105.493 12.527 107.817 11.7185C111.512 11.9326 115.148 12.3684 118.711 13.0127C119.311 13.9699 119.818 15.2147 120.359 16.7774L120.519 17.2399L120.996 17.3449C122.059 17.5824 122.659 16.7124 123.139 16.0124L123.14 16.0109C123.628 15.3042 124.132 14.573 125.096 14.4086C125.453 14.5005 125.81 14.5946 126.166 14.6908C126.261 14.9002 126.31 15.238 126.361 15.7724L126.362 15.7767C126.439 16.5734 126.535 17.5633 127.391 18.0374C128.434 18.6174 129.231 17.6624 129.814 16.9649L129.819 16.9584C130.089 16.6373 130.377 16.2933 130.683 16.0393C131.653 16.357 132.616 16.6905 133.571 17.0398C133.695 17.2287 133.716 17.3463 133.716 17.4049C133.716 17.7376 133.104 18.2793 132.504 18.8096L132.479 18.8324L132.477 18.8341C131.354 19.8239 129.818 21.1787 129.301 23.4449L128.624 26.4074L130.774 24.2599C132.371 22.6624 134.379 23.2849 137.256 24.4174C137.516 24.5199 137.776 24.6224 138.031 24.7199C139.201 25.1674 139.269 26.2299 139.139 28.3849C139.086 29.2424 139.034 30.1274 139.169 30.9349L139.324 31.8699L140.244 31.6399C140.716 31.5224 141.086 31.3524 141.414 31.1999C142.194 30.8374 142.709 30.5999 144.566 31.5674C144.941 31.7624 145.186 31.9749 145.226 32.1374C145.301 32.4449 144.841 33.0874 144.504 33.5574C143.966 34.3074 143.356 35.1599 143.609 36.0899L143.881 37.0874L144.821 36.6549C146.014 36.1024 147.401 38.2499 148.351 40.1499L148.716 40.8799L149.469 40.5649C150.596 40.0949 151.464 40.0024 151.909 40.3074C152.593 40.772 152.564 42.2545 152.551 42.8881L152.551 42.8899V43.0149C152.409 43.1249 152.071 43.2849 151.816 43.4049C150.929 43.8249 149.714 44.3999 149.014 45.7124C148.579 46.5291 147.987 46.8718 147.418 47.2015L147.412 47.2046C146.806 47.5567 146.051 47.9944 146.051 48.9824C146.031 49.6299 144.226 52.7349 142.376 53.6599C142.209 53.7449 142.051 53.8224 141.901 53.8949C140.009 54.8274 139.214 55.3074 138.541 57.8599C138.319 58.7049 137.249 59.2823 136.211 59.8423L136.206 59.8452C134.865 60.5695 133.346 61.3895 133.446 63.0699C133.501 63.9991 133.187 64.7785 132.822 65.6824L132.821 65.6849L132.82 65.6878C132.443 66.6221 132.016 67.6788 132.016 68.9949V69.8699H132.891C134.534 69.8699 135.099 68.2927 135.554 67.0227L135.554 67.0224L135.572 66.9706C135.679 66.6744 135.788 66.3706 135.909 66.0824C136.154 65.4949 136.241 64.9724 136.311 64.5499C136.346 64.3249 136.399 64.0199 136.439 63.9574C136.439 63.9574 136.44 63.957 136.441 63.9564C136.458 63.948 136.572 63.8924 136.921 63.8924C139.004 63.8924 140.266 63.6849 140.266 60.8074C140.266 59.2849 143.234 57.3774 144.759 56.8224C145.024 56.7274 145.291 56.7149 145.601 56.7024C146.854 56.6499 147.976 56.3924 149.041 53.7274L149.124 53.5249L149.099 53.3074C148.771 50.3474 152.641 45.7974 153.931 44.8949C154.806 44.2824 155.689 44.4674 158.731 45.5249C160.239 46.0499 159.911 49.9299 159.216 52.3874L160.721 53.1974C160.836 53.0824 161.406 52.7724 162.466 52.8499C162.534 52.8549 162.664 52.9724 162.791 53.2224C163.431 54.4649 163.371 57.5199 162.431 59.0574L161.799 60.0924L162.981 60.3649C163.051 60.3799 163.091 60.3974 163.111 60.4074C163.169 60.6574 162.891 61.4299 162.739 61.8524C162.571 62.3149 162.399 62.7924 162.316 63.2524C162.314 63.2574 162.314 63.2624 162.314 63.2674C162.154 63.2817 161.833 63.223 161.65 63.1894L161.626 63.1849L161.625 63.1847C161.153 63.0972 160.521 62.9802 160.101 63.4224C159.534 63.6674 157.096 64.0499 156.219 63.8549C155.872 63.7776 155.555 63.4489 155.154 63.0328L155.151 63.0299C154.691 62.5499 154.116 61.9549 153.274 61.5724C152.789 61.3524 152.346 61.3399 151.959 61.5399C151.324 61.8674 151.184 62.5799 151.061 63.2074C150.926 63.8974 150.804 64.3974 150.446 64.5749C149.961 64.8149 149.739 64.7899 149.479 64.7599C148.744 64.6774 148.184 64.8174 147.519 65.7674L147.518 65.7682C146.796 66.7975 146.645 67.0123 143.721 66.4499C141.259 65.9774 140.581 66.0599 139.899 66.9174L139.896 66.9205C139.8 67.0413 139.735 67.1232 139.584 67.2174C139.468 67.2901 139.359 67.3591 139.253 67.4262C139.206 67.4561 139.16 67.4856 139.114 67.5149C138.349 68.0024 137.686 68.4224 135.756 69.3874C134.489 70.0199 133.954 70.5124 133.844 71.1449C133.736 71.7697 134.131 72.1822 134.299 72.3573L134.326 72.3849C134.636 73.0199 135.669 73.5574 136.509 73.6774C137.606 73.8349 138.566 73.4124 139.206 72.4874C140.341 70.8474 140.846 70.2799 142.481 69.8449C143.079 69.6874 143.661 70.0674 144.484 70.6674C145.291 71.2574 146.209 71.9224 147.261 71.5024C148.245 71.109 148.578 70.0734 148.823 69.3143L148.826 69.3049C148.838 69.2708 148.85 69.234 148.862 69.1958C148.899 69.0825 148.94 68.9564 148.981 68.8499C149.819 69.2249 150.531 69.2899 151.149 69.0474C151.734 68.8174 152.166 68.3374 152.436 67.6174C152.562 67.2788 152.635 66.8987 152.711 66.4963L152.714 66.4824C152.941 65.2824 153.104 64.9349 153.436 64.9349C153.934 64.9349 154.121 64.9349 154.121 66.6599V67.7449L155.266 67.4974L155.28 67.4944C157.038 67.1165 157.847 66.9426 159.011 66.0749C159.221 66.0024 159.934 66.0924 160.409 66.1524C161.999 66.3574 164.404 66.6624 165.411 64.4224C165.704 63.7749 165.721 63.7799 166.676 64.0724C167.609 64.3574 169.016 64.7874 170.664 63.7674C171.506 63.2474 171.791 63.2249 171.856 63.2299C171.905 63.2346 172.071 63.3979 172.195 63.5192L172.221 63.5449C172.616 63.9399 173.214 64.5349 174.361 64.8974C175.084 65.1249 175.166 65.4799 175.231 66.5174L175.231 66.5184C175.286 67.3858 175.362 68.5751 176.599 69.1449C176.819 69.2474 176.921 69.3799 176.959 69.6074C177.029 70.0374 176.816 70.5599 176.664 70.7699C176.379 70.8549 176.014 71.0874 175.791 71.7024C175.479 72.5649 175.459 74.2124 176.409 75.0024C176.501 75.0799 176.599 75.4449 176.474 75.7874C176.376 76.0549 176.251 76.0549 176.189 76.0549C175.269 76.0549 174.619 76.2849 174.199 76.7599C173.806 77.2049 173.661 77.8074 173.761 78.5974C173.844 79.2599 174.264 79.8274 174.909 80.1549C175.794 80.6024 176.974 80.5549 177.914 80.0324C179.093 79.3752 178.791 78.3032 178.646 77.788L178.646 77.7874C178.506 77.2849 178.449 77.0299 178.716 76.6624C179.045 76.2116 179.247 76.0933 179.481 75.9565L179.484 75.9549C180.041 75.6299 180.471 75.2949 180.919 73.9549C181.061 73.5224 181.211 72.8874 180.856 72.3624C180.491 71.8249 179.881 71.7874 179.476 71.7649C178.929 71.7326 178.926 71.72 178.867 71.4315L178.866 71.4274C178.856 71.3699 178.849 71.3224 178.846 71.2849C179.031 71.2824 179.379 71.3424 179.749 71.4974L181.071 72.0549L180.961 70.6499C181.016 70.4724 181.606 69.8799 183.726 69.8799H184.356L184.556 69.2824C184.869 68.3397 185.388 67.7505 186.162 67.4937C187.709 71.232 189.012 75.0965 190.052 79.0674C189.027 79.2226 187.834 79.9084 187.429 81.5299C187.144 82.6699 186.649 83.4574 186.346 83.7874C185.909 83.4849 184.876 83.1099 182.134 82.9149C178.874 82.6824 177.846 83.0074 177.524 83.2224C176.809 83.6999 176.839 84.3199 176.884 84.5649C177.084 85.6424 178.604 86.0924 179.249 86.2349C179.744 86.3449 179.994 87.6324 179.994 90.0599V91.1799L181.081 90.9074C182.826 90.4699 183.354 87.8549 183.509 86.6174C183.964 86.4999 184.826 86.5224 185.741 87.8299L186.339 88.6849L187.076 87.9474C188.354 86.6699 189.154 85.0424 189.511 84.0549C190.226 83.7346 190.87 83.627 191.133 83.689C191.169 83.8613 191.204 84.0338 191.238 84.2064C191.154 84.6718 190.844 85.2922 190.379 85.8874L191.681 87.0524C191.702 87.0324 191.724 87.0108 191.75 86.9884C192.165 89.4643 192.48 91.9743 192.689 94.514C192.273 95.1912 191.886 95.6483 191.691 95.7549C191.639 95.7799 191.381 95.7999 190.919 95.5849C189.981 95.1524 188.839 94.0549 188.469 92.7999L188.354 92.4049L187.976 92.2424C187.504 92.0374 186.981 92.0424 186.466 92.2524C184.644 92.9999 183.196 96.3399 182.924 97.0024L184.351 97.9524C184.674 97.6299 185.881 96.8174 187.586 96.9074C187.864 96.9224 187.984 96.9799 188.009 97.0099C188.171 97.2024 188.059 98.1199 187.984 98.7274L187.982 98.7399C187.867 99.6802 187.725 100.85 187.941 102.037L188.239 103.68L189.419 102.5C190.961 100.957 191.834 100.902 192.759 100.845C192.836 100.84 192.914 100.835 192.992 100.829C192.995 101.049 192.997 101.269 192.998 101.489C192.833 101.837 192.462 102.364 191.641 102.795L188.954 104.21L191.981 104.442C192.459 104.48 192.666 104.832 192.746 105.04C192.959 105.59 192.856 106.53 191.929 107.52L191.074 108.43L192.221 108.922C192.401 109 192.57 109.081 192.726 109.166C192.713 109.328 192.7 109.49 192.686 109.652C191.124 109.268 189.097 109.098 187.434 109.475C184.095 110.232 184.558 112.972 184.931 115.177L184.931 115.18C184.979 115.462 185.026 115.752 185.071 116.045L185.184 116.79H185.936C186.551 116.79 187.004 116.702 187.331 116.637C188.059 116.492 188.336 116.44 191.324 119.42C191.327 119.427 191.33 119.434 191.334 119.44C190.706 122.666 189.908 125.831 188.947 128.925C188.458 129.246 187.883 129.591 187.206 129.96L185.169 131.07L187.431 131.58C187.679 131.635 187.861 131.718 187.997 131.813C187.279 133.876 186.489 135.905 185.629 137.897C183.349 138.2 179.972 138.681 176.819 139.22L176.884 140.952C178.957 141.146 180.825 143.332 181.982 145.378C181.942 145.451 181.901 145.525 181.861 145.598C181.111 145.418 180.042 145.109 178.556 144.585L177.674 146.055C178.826 147.115 179.511 148.138 179.905 148.981C179.78 149.187 179.655 149.391 179.529 149.595L177.584 149.04L177.316 149.137C176.729 149.35 175.819 150.07 175.461 151.51C173.992 150.999 171.94 150.762 169.94 150.53L169.916 150.527C168.851 150.405 167.841 150.287 166.979 150.137L164.804 149.76L166.129 151.525C166.526 152.052 167.231 152.425 168.126 152.895C168.931 153.317 169.854 153.802 170.654 154.465C168.571 153.942 165.991 152.912 164.701 152.082C163.206 151.122 161.376 151.47 159.906 151.75L159.894 151.752C159.276 151.869 158.689 151.98 158.329 151.947C157.631 151.885 157.116 152.027 156.751 152.387C156.218 152.913 156.271 153.624 156.313 154.2L156.314 154.207C156.326 154.36 156.336 154.507 156.336 154.637C156.336 155.072 156.336 156.392 160.951 156.552L161.216 156.562L162.869 155.545C162.906 155.562 162.946 155.59 162.989 155.63C163.129 155.76 163.359 156.107 163.359 156.977V157.852H164.234C166.994 157.852 168.396 160.657 168.856 162.492C168.651 162.612 168.361 162.73 168.001 162.73C167.641 162.73 166.919 162.507 166.281 162.31L166.277 162.309C164.874 161.877 163.766 161.536 163.094 162.207C162.354 162.947 162.96 163.853 163.288 164.344L163.289 164.345C163.349 164.435 163.431 164.557 163.496 164.667C163.039 164.762 162.156 164.667 161.421 164.587L161.38 164.583C160.668 164.507 159.86 164.42 159.031 164.42C158.574 164.42 158.454 164.327 158.454 164.327C158.39 164.249 158.369 163.874 158.357 163.643L158.356 163.632L158.356 163.623C158.328 163.128 158.294 162.514 157.994 161.915C157.666 161.255 157.259 160.87 156.754 160.732C155.999 160.527 155.359 160.945 154.739 161.35C154.702 161.374 154.665 161.398 154.627 161.422C154.556 161.468 154.483 161.515 154.409 161.562C154.325 161.615 154.244 161.667 154.165 161.718C154.102 161.759 154.04 161.799 153.979 161.837L153.978 161.838C153.218 162.325 152.716 162.647 151.926 162.74C151.831 162.697 151.619 162.41 151.491 162.238C151.064 161.658 150.416 160.78 149.154 160.78C148.159 160.78 147.506 160.972 146.931 161.142C146.561 161.252 146.211 161.355 145.759 161.412C145.731 161.267 145.706 161.072 145.689 160.925C145.591 160.12 145.386 158.442 143.564 158.442C142.171 158.442 141.414 159.08 140.861 159.545C140.469 159.877 140.299 160.002 140.069 160.002C139.446 159.942 136.831 158.245 134.359 156.292L134.114 156.097L133.801 156.102C132.701 156.125 128.826 156.23 125.211 156.687C120.649 157.265 119.436 158.035 119.046 158.805C115.976 161.612 107.974 164.42 104.314 164.42H103.781L103.536 164.892C101.844 168.156 104.255 186.74 105.058 192.529C104.208 192.553 103.355 192.565 102.5 192.565C100.642 192.565 98.797 192.509 96.9666 192.399C97.2578 190.842 97.5627 188.037 97.7962 182.852C98.1087 175.9 98.1337 168.54 98.1337 166.45V166.062L93.6512 161.987C93.2762 161.385 92.2587 159.95 91.0162 159.917C90.6712 159.912 90.0162 160.005 89.5112 160.765C89.2097 161.218 88.2453 161.356 87.2193 161.503L87.2087 161.505L87.205 161.505C85.8609 161.698 84.3376 161.916 83.1687 162.927C82.5537 163.46 81.3437 163.162 80.1762 162.872C78.6637 162.497 76.7812 162.032 75.9387 163.717C75.1612 165.267 70.4987 167.155 69.4237 167.155H69.3962C69.1937 167.05 68.7837 166.252 70.0337 160.795L68.4437 160.127C66.6862 162.872 59.8462 163.705 57.6612 162.44C57.4262 162.305 57.4212 162.207 57.4187 162.15C57.3812 161.482 58.6337 159.997 60.2112 158.835L61.2537 158.067L60.1537 157.387C59.0237 156.687 56.2662 155.715 53.1112 156.502C50.8737 157.062 48.5862 155.68 46.5712 154.46C45.7112 153.94 44.8962 153.447 44.1537 153.157C43.4162 152.87 43.0737 152.58 42.8012 152.347C41.8987 151.577 41.2937 151.562 39.7112 152.265C37.5887 153.207 36.2462 152.8 34.9437 152.257C34.5887 152.11 34.5137 151.915 34.3712 151.21C34.2387 150.542 34.0537 149.632 33.1087 149.065C33.0987 149.06 33.0887 149.052 33.0787 149.047C33.0926 149.002 33.1097 148.946 33.1249 148.898C33.1288 148.886 33.1326 148.874 33.1362 148.862C33.3012 148.352 33.6437 147.29 32.3937 146.38C31.2812 145.57 30.2012 145.787 29.4887 145.932C29.4112 145.947 29.3212 145.967 29.2337 145.982C29.2513 145.955 29.2695 145.928 29.2872 145.902C29.3045 145.876 29.3213 145.851 29.3362 145.827L29.3407 145.821C29.6874 145.299 30.1183 144.652 30.0187 143.862C29.869 142.662 28.7951 142.481 28.2765 142.393L28.2737 142.392C27.8762 142.325 27.6262 142.275 27.4762 142.1C26.0337 140.415 23.6687 142.135 22.6587 142.87C22.4912 142.992 22.3562 143.045 22.2537 143.025C21.9257 142.961 21.5105 142.36 21.2043 141.876C21.1713 141.809 21.1384 141.742 21.1055 141.674C21.1708 141.63 21.2411 141.587 21.3023 141.549L21.3287 141.532C21.9362 141.155 23.1987 140.37 22.7037 138.882C22.089 137.038 20.7199 137.192 19.72 137.305L19.7187 137.305C19.5312 137.326 19.3392 137.348 19.1413 137.361C18.7544 136.448 18.3821 135.528 18.0246 134.601C18.3474 134.385 18.7203 134.169 19.1337 133.97L19.4987 133.795L19.6012 133.402C20.2012 131.1 19.4587 130.627 19.2137 130.472C18.8537 130.245 18.2512 130.122 17.4137 130.82C17.2215 130.98 16.9931 131.057 16.7499 131.076C16.2269 129.529 15.7446 127.964 15.3042 126.382C15.6441 126.079 16.2162 125.925 17.3987 125.997C19.8362 126.147 21.4262 125.127 25.0987 122.595L26.0337 121.95L25.1712 121.21C24.4325 120.576 23.6366 120.358 22.7163 120.106L22.7112 120.105L22.7044 120.103C22.2486 119.979 21.7282 119.836 21.1287 119.622C19.7017 119.111 18.7577 119.921 17.9985 120.573L17.9937 120.577L17.992 120.579C17.385 121.101 16.7553 121.643 15.7662 121.79C15.0712 121.892 14.7162 121.912 14.5362 121.905C14.5328 121.874 14.5295 121.841 14.5262 121.808C14.522 121.766 14.5178 121.725 14.5137 121.687C14.4937 121.482 14.4687 121.227 14.4162 120.937C14.2868 120.223 14.0017 119.698 13.6393 119.3C12.8476 115.195 12.3334 110.99 12.117 106.707C12.2286 106.536 12.3577 106.362 12.5062 106.19C13.1887 105.4 14.3962 104.517 16.2862 104.805L17.2912 104.957V103.94C17.2912 103.355 17.2912 102.747 20.5537 102.34L20.8812 102.3L21.1012 102.052C22.1637 100.847 24.7262 101.752 26.0912 102.605L28.1537 103.895L27.3837 101.587C27.1962 101.02 26.4487 100.205 24.9187 99.6174C24.4544 99.4377 24.3216 98.5503 24.2043 97.7663L24.2037 97.7624C24.0587 96.7874 23.8937 95.6849 22.8662 95.4274C22.3787 95.3074 21.6862 94.2449 21.3012 92.4549C20.9487 90.8174 20.3387 90.5024 19.2612 90.4724C18.9962 90.4649 18.6987 90.4549 18.3162 90.3599C18.0012 90.2799 17.7812 90.1749 17.7287 90.0774C17.6037 89.8449 17.7412 89.1599 18.1337 88.0374C18.1593 88.063 18.1849 88.0893 18.2099 88.1149C18.2336 88.1393 18.2567 88.163 18.2787 88.1849C18.8262 88.7449 19.5762 89.5099 20.6637 89.7274C21.4609 89.8873 21.9932 90.8791 22.558 91.9311L22.5587 91.9324L22.563 91.9405C22.9792 92.7155 23.4108 93.5193 24.0212 94.0674C25.4587 95.3599 27.5887 94.4724 28.6212 93.7424L28.6812 93.6999L28.7337 93.6474C29.0462 93.3349 29.1562 92.8974 29.0262 92.4774C28.7812 91.6724 27.7487 91.1374 25.6812 90.7399C24.2982 90.4753 24.1441 89.914 23.8649 88.8969L23.8621 88.8868C23.6199 88.0052 23.3185 86.9083 22.0587 86.1674C21.3171 85.734 21.1923 85.5511 21.1774 85.5292C21.1769 85.5284 21.1762 85.5274 21.1762 85.5274C21.1691 85.4917 21.1755 85.3702 21.1804 85.2766L21.1812 85.2624L21.1813 85.2595C21.2038 84.8394 21.2378 84.2051 20.8737 83.2349C20.0087 80.9299 18.5312 81.2524 16.9662 81.5949L16.9262 81.6036C16.476 81.7015 15.9663 81.8124 15.3812 81.8949C14.7687 81.9824 14.4437 82.0099 14.2737 82.0099C14.2662 81.9874 14.2562 81.9624 14.2487 81.9399C14.2481 81.9382 14.2475 81.9365 14.2469 81.9348ZM14.5944 123.668C14.6743 123.994 14.7559 124.319 14.8393 124.644C15.5222 124.307 16.4019 124.191 17.5487 124.262C19.1012 124.36 20.1112 123.902 22.9412 121.99C22.7912 121.944 22.6293 121.899 22.4522 121.85C22.3991 121.836 22.3446 121.82 22.2887 121.805L22.2174 121.785C21.7449 121.655 21.2116 121.508 20.5787 121.282C20.1512 121.13 19.9287 121.265 19.1737 121.917C18.4912 122.505 17.5537 123.31 16.0637 123.532C15.4744 123.62 14.9944 123.673 14.5944 123.668ZM17.3448 132.778C17.3664 132.838 17.3881 132.898 17.4098 132.958C17.6411 132.816 17.8553 132.695 18.0337 132.6C18.0387 132.575 18.0437 132.552 18.0462 132.527C17.8181 132.645 17.583 132.727 17.3448 132.778ZM19.8835 139.063C20.0405 139.413 20.1996 139.761 20.3609 140.109C20.3883 140.092 20.4156 140.075 20.4427 140.058L20.4437 140.057C21.1405 139.625 21.1162 139.553 21.0813 139.448L21.0812 139.447C20.9695 139.114 20.5937 138.983 19.9537 139.055L19.9051 139.06C19.8979 139.061 19.8907 139.062 19.8835 139.063ZM22.6853 144.762C36.8621 171.208 63.7982 189.79 95.2634 192.28C95.9248 188.943 96.4078 178.676 96.4187 166.852L92.3187 163.125L92.2512 163.012C91.8162 162.275 91.2837 161.775 91.0462 161.695C91.0408 161.7 91.0354 161.707 91.0296 161.715C91.0219 161.726 91.0136 161.738 91.0037 161.752C90.2662 162.857 88.8562 163.06 87.4912 163.255C86.3312 163.42 85.1312 163.592 84.3487 164.267C83.0487 165.392 81.2437 164.947 79.7912 164.587C78.3837 164.24 77.7237 164.147 77.5387 164.517C76.3362 166.925 70.3137 169.25 68.9762 168.865C67.4437 168.427 67.0912 166.975 67.8187 163.025C64.4912 164.97 59.0762 165.277 56.8212 163.972C55.9512 163.47 55.7362 162.765 55.7087 162.262C55.6312 160.86 56.9687 159.36 58.0687 158.372C56.9787 158.027 55.3537 157.77 53.5737 158.215C50.6262 158.95 47.8962 157.3 45.7037 155.972L45.6647 155.949C44.8842 155.478 44.1488 155.034 43.5562 154.802C42.5412 154.407 42.0362 153.977 41.7037 153.692C41.6262 153.627 41.5337 153.547 41.4887 153.517C41.4162 153.517 41.1737 153.56 40.4612 153.877C37.7062 155.102 35.8412 154.522 34.3112 153.885C33.0603 153.363 32.8418 152.285 32.6968 151.57L32.6962 151.567C32.5762 150.972 32.5062 150.732 32.2487 150.577C31.0237 149.842 31.3637 148.785 31.5112 148.335L31.5133 148.329C31.5485 148.22 31.606 148.044 31.5962 147.99C31.5962 147.99 31.5637 147.922 31.4037 147.805C30.9362 147.465 30.5187 147.527 29.8737 147.657L29.8662 147.659C29.2919 147.774 28.5108 147.93 27.8487 147.38C26.8187 146.52 27.5612 145.402 27.9187 144.867C28.0412 144.682 28.2512 144.365 28.3087 144.18C28.2426 144.165 28.1622 144.151 28.0902 144.139C28.0669 144.135 28.0445 144.131 28.0237 144.127L28.0214 144.127C27.5164 144.042 26.7553 143.914 26.1862 143.25C26.0687 143.112 25.5937 142.94 23.7262 144.297C23.3848 144.546 23.0365 144.701 22.6853 144.762ZM106.812 192.464C130.873 191.335 152.476 180.811 168.036 164.477C168.025 164.477 168.013 164.477 168.001 164.477C167.383 164.477 166.61 164.24 165.79 163.988L165.764 163.98C165.541 163.912 165.256 163.822 164.981 163.747C165.331 164.355 165.696 165.322 164.739 166.005C163.886 166.612 162.656 166.48 161.234 166.325C160.521 166.247 159.784 166.167 159.031 166.167C156.745 166.167 156.656 164.582 156.609 163.729L156.609 163.725C156.589 163.337 156.569 162.972 156.429 162.695C156.371 162.577 156.324 162.502 156.289 162.457C156.139 162.525 155.889 162.687 155.696 162.815C155.581 162.89 155.461 162.967 155.336 163.047C155.191 163.137 155.054 163.225 154.921 163.31L154.914 163.315C154.054 163.865 153.313 164.34 152.109 164.475C151.054 164.595 150.469 163.802 150.084 163.277C149.691 162.747 149.499 162.53 149.154 162.53C148.418 162.53 147.964 162.663 147.44 162.816L147.426 162.82L147.411 162.824C146.955 162.958 146.436 163.111 145.724 163.175C144.219 163.31 144.032 161.79 143.952 161.138L143.951 161.135C143.836 160.19 143.761 160.19 143.564 160.19C142.811 160.19 142.451 160.493 141.992 160.879L141.989 160.882C141.529 161.27 140.959 161.75 140.054 161.75C138.679 161.75 135.199 159.17 133.521 157.857C126.554 158.015 121.269 158.885 120.599 159.625L120.546 159.79L120.384 159.945C117.196 162.997 109.284 165.882 104.929 166.145C104.161 169.21 105.26 181.422 106.812 192.464ZM170.48 161.808C172.633 159.359 174.656 156.794 176.538 154.122L175.694 153.537C174.836 152.945 172.801 152.635 170.781 152.39C171.829 153.072 172.879 153.97 173.581 155.257L174.286 156.552H172.811C170.309 156.552 165.594 154.735 163.759 153.555C162.851 152.972 161.464 153.235 160.239 153.467L160.237 153.468C159.49 153.61 158.783 153.745 158.174 153.69C158.121 153.685 158.076 153.682 158.039 153.682C158.039 153.802 158.051 153.957 158.059 154.075C158.063 154.123 158.066 154.172 158.07 154.223C158.072 154.265 158.075 154.307 158.079 154.35C158.486 154.53 159.546 154.727 160.751 154.79L162.391 153.78L162.599 153.762C163.151 153.717 163.724 153.925 164.166 154.332C164.506 154.647 164.901 155.202 165.046 156.157C168.205 156.608 169.863 159.639 170.48 161.808ZM177.066 153.365C177.573 152.629 178.069 151.887 178.554 151.136L177.736 150.902C177.471 151.135 177.066 151.707 177.066 152.817V153.365ZM180.941 147.231C180.952 147.212 180.962 147.194 180.973 147.176C180.946 147.169 180.92 147.162 180.894 147.155C180.91 147.18 180.926 147.205 180.941 147.231ZM182.942 143.572C183.587 142.323 184.205 141.057 184.793 139.775C183.423 139.963 181.796 140.197 180.114 140.457C181.239 141.287 182.192 142.425 182.942 143.572ZM191.716 117.342C192.049 115.384 192.319 113.405 192.524 111.407C191.285 111.074 189.398 110.817 187.826 111.175C186.271 111.527 186.214 112.237 186.661 114.882C186.663 114.895 186.665 114.908 186.667 114.921C186.67 114.939 186.673 114.957 186.676 114.975C186.76 114.962 186.842 114.946 186.921 114.93C186.948 114.925 186.975 114.92 187.001 114.915C188.403 114.641 189.119 114.833 191.716 117.342ZM192.952 99.074C192.93 98.399 192.9 97.7258 192.864 97.0546C192.705 97.1867 192.551 97.2878 192.406 97.3524C191.796 97.6224 191.031 97.5599 190.186 97.1699C190.061 97.1124 189.934 97.0449 189.801 96.9699C189.884 97.5464 189.806 98.198 189.726 98.8724L189.719 98.9374C189.674 99.2974 189.629 99.6774 189.601 100.065C190.868 99.2094 191.829 99.1477 192.646 99.0953L192.651 99.0949C192.753 99.0886 192.852 99.0822 192.952 99.074ZM190.75 81.9223C190.663 81.5382 190.573 81.1551 190.481 80.7728C190.15 80.7789 189.39 80.9104 189.131 81.9449C189.096 82.0824 189.059 82.2199 189.016 82.3599C189.486 82.1668 190.118 81.961 190.75 81.9223ZM185.473 65.8732C175.886 43.9244 157.845 26.5136 135.465 17.7564C135.307 18.7047 134.507 19.4095 133.664 20.1524L133.63 20.1819C133.135 20.6208 132.608 21.0873 132.154 21.6399C134.091 21.2874 136.154 22.0999 137.924 22.7974C137.974 22.8171 138.024 22.8369 138.074 22.8566C138.278 22.9367 138.481 23.0162 138.681 23.0924C141.181 24.0449 141.034 26.5149 140.914 28.4974C140.891 28.8599 140.871 29.2099 140.864 29.5449C142.016 29.0299 143.076 28.8074 145.404 30.0199C146.269 30.4724 146.791 31.0499 146.956 31.7349C147.214 32.8174 146.516 33.7949 145.954 34.5799C145.938 34.6025 145.921 34.6264 145.903 34.6513C145.86 34.7116 145.812 34.7776 145.766 34.8449C147.531 35.1849 148.864 37.3199 149.586 38.6724C150.971 38.2349 152.091 38.2999 152.921 38.8649C154.354 39.8399 154.346 41.9099 154.329 42.8599C155.669 42.5999 157.184 43.1249 159.326 43.8699C162.014 44.8049 161.736 48.7874 161.309 51.1499C161.694 51.0874 162.129 51.0649 162.611 51.0999C163.029 51.1299 163.814 51.3399 164.369 52.4174C165.229 54.0899 165.181 57.0999 164.354 59.1474C164.496 59.2824 164.596 59.4274 164.666 59.5524C165.136 60.4149 164.766 61.4474 164.406 62.4449C164.392 62.4862 164.377 62.5277 164.362 62.5691C164.304 62.7332 164.246 62.8972 164.194 63.0549C165.118 61.7588 166.396 62.1491 167.199 62.3941L167.201 62.3949C168.049 62.6549 168.781 62.8774 169.756 62.2749C171.691 61.0774 172.496 61.3299 173.469 62.3024L173.474 62.3076C173.812 62.6435 174.162 62.9911 174.899 63.2249C176.821 63.8309 176.926 65.4342 176.988 66.3951L176.989 66.4024C177.041 67.2399 177.104 67.4424 177.344 67.5524C178.159 67.9299 178.646 68.6499 178.721 69.5349C179.006 69.5174 179.294 69.5499 179.556 69.6024C179.619 69.5074 179.691 69.4174 179.771 69.3324C180.434 68.6174 181.564 68.2149 183.134 68.1374C183.557 67.2038 184.271 66.3118 185.473 65.8732ZM128.833 15.4557C128.586 15.3807 128.338 15.3067 128.091 15.2338C128.107 15.3703 128.12 15.4979 128.131 15.6116L128.131 15.6149C128.146 15.7824 128.169 16.0099 128.201 16.1999C128.304 16.0849 128.411 15.9574 128.496 15.8524L128.497 15.8515C128.602 15.7254 128.714 15.5916 128.833 15.4557ZM122.683 13.8239C122.107 13.6927 121.53 13.5671 120.95 13.447C121.205 13.9875 121.436 14.5548 121.654 15.1374C121.67 15.1146 121.686 15.0907 121.702 15.0678C121.71 15.0556 121.718 15.0437 121.726 15.0324L121.726 15.0322C121.978 14.6665 122.281 14.2265 122.683 13.8239ZM103.997 11.5771C103.499 11.569 103 11.5649 102.5 11.5649C100.72 11.5649 98.9528 11.6163 97.1986 11.7176C97.5959 12.6731 97.741 13.8077 97.5762 14.8699C97.6214 14.9355 97.6632 14.9994 97.7026 15.0596C97.7307 15.1027 97.7576 15.1439 97.7837 15.1824C97.8787 15.3299 97.9962 15.5074 98.0637 15.5824C98.5187 15.5524 100.129 14.6399 100.981 14.1524C101.703 13.1593 102.76 12.2993 103.997 11.5771ZM87.4805 12.8056C58.6758 17.6168 34.4778 36.0335 21.717 61.2252C22.698 60.5163 24.2597 60.2055 25.7112 60.4774C26.5737 60.6399 27.0087 61.1174 27.2212 61.4899C27.3937 61.7924 27.4787 62.1174 27.5062 62.4399C27.6887 62.4224 27.8887 62.4174 28.1062 62.4249C28.5012 60.3224 30.5112 57.7924 32.3737 57.3649C32.9162 57.2399 33.3637 57.2024 33.7537 57.2599C33.7107 57.1207 33.6744 56.9881 33.6407 56.8651C33.6332 56.8379 33.6259 56.8111 33.6187 56.7849C33.6132 56.7651 33.6078 56.7453 33.6025 56.7257C33.5462 56.5204 33.4937 56.3289 33.4412 56.1874C33.1537 55.4199 33.0862 54.2524 33.7612 53.2799C34.1112 52.7749 34.7587 52.1974 35.9387 51.9224C34.7912 51.7149 33.8262 50.2199 33.6062 48.8199C33.3512 47.1874 34.0412 45.8749 35.4637 45.2249C35.7237 44.4149 36.2937 43.8324 37.0562 43.6199C38.0762 43.3374 39.2337 43.7524 40.2562 44.7399C40.8562 44.5099 41.5862 44.5324 42.3037 44.8324C43.5637 45.3574 44.3212 46.5049 44.2312 47.7549L44.2212 47.8774L44.1787 47.9924C44.0287 48.4074 43.8262 48.7924 43.6462 49.1324C43.0462 50.2774 43.0737 50.4199 43.5187 50.7849C44.7912 51.8274 44.4987 52.6724 44.1262 53.3824C43.9512 53.7124 43.8012 53.9999 43.8387 54.5174C43.9037 55.4099 44.0837 55.5149 45.4737 56.0599C45.7962 56.1849 46.1612 56.3299 46.5662 56.5074C47.0512 56.7199 47.4162 56.9274 47.6987 57.1424C47.6362 56.9124 47.5887 56.6799 47.5487 56.4449C47.4287 55.7674 47.3562 55.4974 47.0812 55.3399C45.0293 54.1678 45.6958 50.732 46.3406 47.4079L46.3412 47.4049C46.3532 47.3429 46.3651 47.2813 46.3769 47.2201C46.4789 46.6937 46.5753 46.1955 46.6537 45.7274C47.0883 43.117 49.4949 43.3121 50.7906 43.4172L50.7937 43.4174C51.1912 43.4499 51.8437 43.5024 52.0512 43.4224C52.1187 43.2549 52.1037 43.2374 51.8237 42.9299L51.823 42.9292C51.3879 42.449 50.5791 41.5566 51.4112 39.8924C51.8587 38.9974 52.2787 38.5824 52.5562 38.3099C52.5661 38.3 52.5765 38.2898 52.5869 38.2795C52.6187 38.2482 52.6511 38.2162 52.6737 38.1899C52.6662 38.0849 52.6162 37.8249 52.4037 37.1824C52.3235 36.94 52.248 36.7267 52.1806 36.5364C52.1618 36.4833 52.1436 36.432 52.1262 36.3824C51.4562 34.5074 51.6037 34.1649 53.0712 32.3324C53.9188 31.2729 55.2908 30.6982 56.5058 30.1893L56.5261 30.1808C57.7174 29.6823 58.8392 29.213 59.0137 28.5074C59.7457 25.5844 63.0066 26.1941 64.9596 26.5591L64.9637 26.5599C66.1937 26.7899 66.7387 27.5099 67.0387 27.9424C67.0912 27.9024 67.1537 27.8524 67.2262 27.7899C67.5587 27.5099 67.5887 27.3824 67.5887 27.3799C67.5937 27.3099 67.4762 27.0624 67.3962 26.8999L67.3919 26.8909C67.1194 26.3184 66.7098 25.4581 66.9287 24.1549C67.3112 21.8674 68.0962 21.4674 69.5712 20.9074C69.8612 20.7974 70.1887 20.6724 70.5612 20.5099C72.2005 19.7927 73.1979 21.0913 73.6781 21.7166L73.6787 21.7174C73.7062 21.7524 73.7362 21.7924 73.7662 21.8324C73.7737 21.8199 73.7787 21.8099 73.7862 21.7974C75.3087 19.0599 78.5537 16.1499 81.5687 16.1499C82.5587 16.1499 83.2337 16.4274 83.7087 16.8274C83.6188 15.4213 84.4795 14.9459 85.4557 14.4065L85.4587 14.4049L85.4677 14.4C85.9635 14.1259 86.5681 13.7917 87.3062 13.2524C87.3556 13.0994 87.4137 12.9504 87.4805 12.8056ZM20.7185 63.2595C20.7371 63.4126 20.7737 63.5659 20.8287 63.7174C20.9722 64.1109 20.8487 64.5241 20.7055 65.0029L20.7012 65.0174C20.5362 65.5624 20.3287 66.2574 20.5862 66.9624C20.3962 67.0724 20.2112 67.2349 20.0687 67.4724C19.7762 67.9574 19.7687 68.5924 20.0412 69.4124L20.1962 69.8749C20.2809 70.1353 20.3638 70.3814 20.4418 70.6131C20.4559 70.655 20.4699 70.6964 20.4837 70.7374C19.6891 70.4077 18.7658 70.123 17.8289 70.0416C18.702 67.7344 19.6667 65.4722 20.7185 63.2595ZM185.754 95.3349C186.191 94.6649 186.644 94.1299 187.021 93.9199H187.024C187.221 94.3649 187.476 94.7824 187.766 95.1624C187.743 95.1605 187.72 95.1586 187.698 95.1578C187.69 95.1576 187.683 95.1574 187.676 95.1574C186.974 95.1199 186.329 95.1949 185.754 95.3349ZM24.8493 92.3458C24.9716 92.5179 25.0939 92.6676 25.2237 92.7824C25.5762 93.0999 26.1837 93.0099 26.7262 92.8049C26.4162 92.7024 25.9837 92.5874 25.3812 92.4724C25.1924 92.4352 25.0159 92.3929 24.8493 92.3458ZM179.856 84.5823C180.936 84.9373 181.404 86.013 181.604 87.3649C181.706 86.9374 181.784 86.4599 181.819 85.9624L181.849 85.5349L182.206 85.2974C182.599 85.0349 183.146 84.8449 183.766 84.8299C182.581 84.6678 181.003 84.5728 179.856 84.5823ZM186.474 85.9849C186.354 85.8674 186.231 85.7599 186.109 85.6624H186.111C186.241 85.6799 186.379 85.6799 186.516 85.6549C186.599 85.6399 186.681 85.6199 186.761 85.5899C186.669 85.7224 186.574 85.8549 186.474 85.9849ZM175.501 78.3774C175.456 78.0174 175.516 77.9149 175.516 77.9149V77.9174C175.516 77.9174 175.644 77.8049 176.194 77.8049C176.419 77.8049 176.631 77.7699 176.831 77.7049C176.869 77.9149 176.921 78.1024 176.966 78.2624C176.989 78.3424 177.016 78.4424 177.034 78.5199C176.559 78.7699 176.009 78.7474 175.704 78.5924C175.579 78.5274 175.511 78.4574 175.501 78.3774ZM177.393 72.4633C177.316 72.8538 177.359 73.5103 177.534 73.6549C177.846 73.9149 178.069 74.2899 178.189 74.7099C178.344 74.5949 178.484 74.5124 178.606 74.4424C178.851 74.2999 178.979 74.2249 179.229 73.4999C178.717 73.4625 177.856 73.3303 177.393 72.4633ZM137.031 71.9574C136.551 71.9874 136.056 71.7124 135.891 71.5674V71.5699C135.859 71.5049 135.821 71.4449 135.784 71.3899C135.939 71.2849 136.179 71.1424 136.554 70.9549C138.411 70.0249 139.146 69.5749 139.886 69.1074C139.059 69.6924 138.494 70.4649 137.781 71.4924C137.574 71.7899 137.336 71.9374 137.031 71.9574ZM49.6537 68.4174C49.5837 68.2349 49.5162 68.0699 49.4537 67.9224V67.9199C49.9387 67.9074 50.3762 67.8599 50.7362 67.8199C51.4895 67.7382 51.907 67.8891 51.9887 68.2724C52.2487 69.4849 52.7512 70.3674 53.4862 70.9099C51.8162 70.6849 50.3762 70.1899 50.0137 69.3149C49.8835 69.0015 49.7786 68.7349 49.6887 68.5064C49.6768 68.4761 49.6651 68.4464 49.6537 68.4174ZM143.808 68.2475C144.467 68.4842 145.039 68.899 145.516 69.2451L145.526 69.2524C145.831 69.4749 146.471 69.9399 146.624 69.8774C146.844 69.7899 147.041 69.1774 147.171 68.7724C147.224 68.6074 147.279 68.4399 147.339 68.2774C146.573 68.5816 145.542 68.56 143.808 68.2475ZM141.342 67.9298C141.322 67.9522 141.298 67.9833 141.279 68.0074L141.275 68.0124C141.135 68.1875 140.925 68.4498 140.521 68.7024C140.454 68.7449 140.386 68.7874 140.321 68.8274C140.791 68.5599 141.346 68.3399 142.041 68.1549C142.299 68.0874 142.544 68.0574 142.786 68.0599C141.797 67.8926 141.457 67.9049 141.342 67.9298ZM149.549 67.1774C149.271 67.0399 149.024 66.9899 148.811 66.9899L148.809 66.9924C148.823 66.9727 148.837 66.9529 148.851 66.9328C148.888 66.8815 148.926 66.8288 148.964 66.7749C149.079 66.6099 149.154 66.5299 149.194 66.4924C149.21 66.4937 149.228 66.4955 149.246 66.4974C149.264 66.4993 149.282 66.5012 149.299 66.5024C149.634 66.5399 150.179 66.5999 150.986 66.2599C150.931 66.5524 150.876 66.8224 150.809 67.0024C150.759 67.1349 150.656 67.3649 150.521 67.4174C150.456 67.4449 150.196 67.5024 149.549 67.1774ZM55.5258 64.4217C55.1186 63.2626 54.5767 61.7199 52.6762 61.7199V61.7174C52.4887 61.7174 52.2837 61.7324 52.0662 61.7649L51.7837 61.8074L51.7812 61.8078C50.9073 61.9401 50.216 62.0448 49.9812 61.9399C49.7687 61.8424 49.4862 61.2124 49.2362 60.6074C48.9768 59.981 48.8731 59.5126 48.7821 59.1015L48.7762 59.0749C48.7687 59.0437 48.7618 59.0124 48.7549 58.9812C48.7481 58.9499 48.7412 58.9187 48.7337 58.8874C49.3937 59.4549 50.4362 59.8674 52.1312 59.9949C53.3437 60.0849 54.3762 60.0999 55.2887 60.1124C58.2887 60.1549 59.2987 60.1699 60.3712 62.4799C61.0012 63.8349 60.7937 64.3624 60.6087 64.8249C60.1712 65.9224 60.5037 66.5774 61.4737 67.2449C61.0037 67.2099 60.4637 67.1999 59.8437 67.2149C58.6375 67.2417 57.8192 67.2826 57.2693 67.3101L57.2237 67.3124C57.1831 67.3148 57.1431 67.3166 57.1037 67.3184C57.0605 67.3204 57.018 67.3223 56.9762 67.3249C56.8912 67.0199 56.7212 66.6674 56.3937 66.2499C55.9818 65.7282 55.7519 65.0694 55.5297 64.4328L55.5258 64.4217ZM38.4512 59.9499C38.3462 59.9224 38.2437 59.9024 38.1412 59.8849C38.5837 59.8049 38.9762 59.6974 39.3437 59.5949L39.3446 59.5947C40.0966 59.3873 40.649 59.235 41.3437 59.4249C41.3387 59.6199 41.2562 59.9824 41.1987 60.2349C40.9562 61.2949 40.5062 63.2674 42.6087 64.2124C43.4812 64.6049 44.2362 65.1674 44.9612 65.7399C42.6687 64.9949 41.2912 63.8624 40.9612 62.4374C40.6862 61.2499 39.7012 60.2724 38.4512 59.9499ZM155.884 65.5749C155.869 65.5774 155.854 65.5824 155.839 65.5849V65.5649L155.836 65.5624L155.854 65.5674C155.864 65.5699 155.874 65.5749 155.884 65.5749ZM138.548 60.5126C138.074 60.8425 137.556 61.1225 137.064 61.3874C136.149 61.8799 135.491 62.2624 135.281 62.6699C135.616 62.3624 136.131 62.1499 136.939 62.1499C137.524 62.1499 138.189 62.1499 138.351 62.0349C138.359 62.0299 138.534 61.8924 138.534 60.8149C138.534 60.7133 138.539 60.6142 138.548 60.5126ZM36.4687 60.0274C36.4593 60.0118 36.4499 59.9962 36.4412 59.9799C36.5237 59.9899 36.6062 59.9974 36.6937 59.9999C36.6262 60.0224 36.5612 60.0474 36.4962 60.0749C36.4874 60.0587 36.4781 60.043 36.4687 60.0274ZM147.821 49.0401C147.771 50.5103 145.501 54.07 143.179 55.2324C143.009 55.3174 142.846 55.3974 142.694 55.4724L142.692 55.473C141.388 56.115 140.931 56.3402 140.551 57.3424C141.894 56.2024 143.524 55.4249 144.179 55.1874C144.686 55.0021 145.146 54.9809 145.518 54.9637L145.546 54.9624C146.266 54.9324 146.674 54.9149 147.356 53.2749C147.261 51.7174 147.911 49.9949 148.814 48.4249C148.634 48.5399 148.464 48.6399 148.311 48.7274L148.298 48.7353C148.128 48.8333 147.91 48.9597 147.821 49.0401ZM85.3062 19.9124C85.1462 19.7524 85.0362 19.4574 84.9287 19.1224V19.1199C85.4262 19.3799 85.9637 19.4074 86.3087 19.4249C86.3354 19.4268 86.3648 19.4284 86.3951 19.43C86.4441 19.4326 86.4958 19.4353 86.5437 19.4399C86.5112 19.8674 86.3712 20.1599 86.1612 20.2374C85.9687 20.3099 85.6312 20.2374 85.3062 19.9124Z" stroke="white" stroke-width="0.25"/>
</svg>
