<svg width="203" height="245" viewBox="0 0 203 245" fill="none" xmlns="http://www.w3.org/2000/svg">
<path d="M146.394 48.6587L181.25 40.4327C179.962 39.8806 178.581 39.1833 177.105 38.4378C171.497 35.6058 164.513 32.079 156.014 33.1827C155.234 20.9135 140.167 5.94872 132.731 0C136.588 10.2244 144.721 34.2702 146.394 48.6587Z" fill="white"/>
<path fill-rule="evenodd" clip-rule="evenodd" d="M101.5 244.13C157.557 244.13 203 198.687 203 142.63C203 86.5729 157.557 41.1298 101.5 41.1298C45.4431 41.1298 0 86.5729 0 142.63C0 198.687 45.4431 244.13 101.5 244.13ZM28.481 188.603C20.084 175.294 15.225 159.529 15.225 142.63C15.225 137.15 15.7358 131.79 16.7124 126.594C27.3729 128.439 36.6583 127.167 44.4271 123.478C45.8477 122.804 47.2025 122.056 48.4927 121.243C34.4877 153.025 28.671 174.586 28.481 188.603ZM47.9485 210.277C53.399 214.598 59.3839 218.274 65.7879 221.19C69.8007 209.298 74.1418 195.033 78.7229 179.94C66.7581 199.243 56.4641 208.225 47.9485 210.277ZM94.2341 228.603C87.7333 228.061 81.4373 226.798 75.4263 224.895C79.6533 212.401 84.216 197.367 88.9647 181.72L88.9649 181.719L88.9651 181.719L89.5029 179.947C95.0476 161.68 100.851 142.631 106.742 125.56C112.658 108.419 118.556 93.5943 124.23 83.6431C127.092 78.6243 129.672 75.2557 131.867 73.4089C133.991 71.6222 134.888 71.8987 135.232 72.0284C136.622 72.5531 137.419 73.3768 137.958 74.6437C138.576 76.1006 138.898 78.3095 138.674 81.4207C138.224 87.6725 135.724 95.7962 132.322 104.438C129.412 111.832 126.003 119.218 123.025 125.67C122.559 126.681 122.102 127.669 121.66 128.631C120.051 132.133 118.603 135.343 117.569 137.95C117.052 139.253 116.6 140.502 116.278 141.623C115.994 142.613 115.655 144.011 115.728 145.411C115.743 145.687 115.788 146.328 116.042 147.059C116.222 147.579 117.092 149.807 119.749 150.465C122.264 151.088 124.026 149.688 124.371 149.405C124.925 148.951 125.282 148.475 125.438 148.258C126.024 147.444 126.545 146.307 126.916 145.474C127.787 143.515 129.002 140.442 130.428 136.837L130.477 136.712L130.478 136.711L130.478 136.71L130.479 136.709C133.372 129.392 137.305 119.447 141.749 109.916C146.279 100.201 151.103 91.449 155.616 86.3335C157.926 83.7157 159.597 82.7038 160.528 82.4586C160.877 82.3668 161.046 82.4002 161.169 82.441C161.328 82.4937 161.753 82.6827 162.395 83.3815L162.484 83.4777L162.577 83.5693C162.857 83.8441 163.755 85.3652 163.496 89.9385C163.256 94.1656 162.097 99.7634 160.085 106.467C157.781 114.139 154.457 122.942 150.451 132.285C147.494 137.544 144.662 143.453 142.05 149.727C141.363 151.377 140.688 153.06 140.028 154.772C131.756 171.477 122.353 188.244 113.579 202.092C106.108 213.884 99.3275 223.18 94.2341 228.603ZM128.117 198.156C126.161 201.422 124.214 204.584 122.295 207.613C117.224 215.616 112.236 222.869 107.673 228.687C114.031 228.238 120.198 227.1 126.101 225.346C125.812 216.849 126.575 207.592 128.117 198.156ZM136.357 221.574C156.325 212.744 172.314 196.56 180.891 176.457C181.383 175.203 181.848 173.954 182.286 172.716C185.065 164.852 186.581 157.778 186.621 152.747C186.642 150.205 186.279 148.636 185.885 147.816C185.623 147.27 185.49 147.275 185.441 147.276C185.435 147.276 185.43 147.277 185.427 147.276C184.193 147.037 182.679 147.365 180.575 149.294C179.69 150.106 178.805 151.114 177.925 152.29C177.457 153.121 176.987 153.95 176.52 154.775L176.411 154.967L176.411 154.968C174.762 157.879 173.145 160.733 171.647 163.538C171.607 163.612 171.568 163.686 171.529 163.76C170.539 165.958 169.624 168.172 168.78 170.282C168.337 171.389 167.902 172.501 167.481 173.576L167.473 173.598L167.472 173.601C166.654 175.689 165.893 177.635 165.241 179.126C165.134 179.469 164.987 179.807 164.798 180.135C163.412 182.535 160.161 183.474 157.693 182.05C155.73 180.916 154.774 178.721 155.164 176.662L155.158 176.66C156.398 171.004 159.208 164.971 162.262 159.21C163.129 157.298 164.064 155.363 165.066 153.484C166.297 151.173 167.683 148.841 169.238 146.689C170.321 144.762 171.369 142.871 172.353 141.015C175.389 135.288 177.548 130.389 178.28 126.437C178.956 122.782 178.287 120.891 176.9 119.609C176.29 119.193 175.658 119.065 174.434 119.552C172.806 120.2 170.562 121.861 167.86 124.963C165.208 128.008 162.448 132.052 159.709 136.873C156.705 143.848 153.361 151.052 149.816 158.251C149.764 158.358 149.711 158.465 149.659 158.571L149.485 158.924C141.811 178.936 136.386 202.44 136.357 221.574ZM38.8063 111.639C34.0392 113.902 27.9146 115.018 20.1342 113.871C26.5891 95.6088 39.0185 80.1683 55.074 69.8985C56.0119 72.7927 56.5409 76.3725 56.4579 80.3946C56.3317 86.5051 54.7965 93.0414 51.7971 98.7071C48.814 104.342 44.4863 108.942 38.8063 111.639ZM86.2885 136.706C73.319 165.845 62.4159 182.491 54.006 190.983C49.8474 195.182 46.9032 196.766 45.2675 197.296C43.9914 197.71 43.5585 197.505 43.3337 197.399L43.3149 197.39C43.3083 197.387 43.3014 197.384 43.2944 197.381L43.2778 197.374L43.2763 197.373L43.2756 197.373C43.0961 197.294 42.8139 197.17 42.416 196.168C41.8309 194.695 41.1562 191.492 41.6662 185.526C42.696 173.479 48.1667 154.19 61.183 124.946C74.3718 95.3146 84.393 77.3742 92.695 67.8727C96.7589 63.2217 99.5742 61.5884 101.16 61.0593C102.283 60.6849 103.424 60.6083 105.461 61.5409C107.426 62.4405 107.888 63.2163 108.209 64.0332C108.753 65.4149 109.331 68.531 108.416 74.7642C106.553 87.4483 99.5246 106.969 86.2885 136.706Z" fill="white"/>
</svg>
