<svg width="450" height="108" viewBox="0 0 450 108" fill="none" xmlns="http://www.w3.org/2000/svg">
<path d="M34.2498 102.335C38.4164 102.335 42.0831 101.21 45.2497 98.9605C48.4997 96.7105 50.1247 93.3355 50.1247 88.8356C50.1247 84.2523 48.3747 80.7523 44.8747 78.3356C41.4581 75.919 36.5414 73.8357 30.1248 72.0857C23.7915 70.2523 19.1666 68.669 16.2499 67.3357C13.4166 66.0024 10.7083 64.2524 8.12495 62.0857C2.95832 57.7524 0.374998 51.0441 0.374998 41.9609C0.374998 34.5442 2.99998 28.1693 8.24995 22.836C13.5833 17.5027 20.8332 14.836 29.9998 14.836C34.4165 14.836 38.9998 15.5027 43.7497 16.836C48.583 18.086 51.583 18.711 52.7497 18.711C53.9163 18.711 54.958 17.8777 55.8747 16.211H57.2496L58.1247 41.4609H56.1247C52.1247 34.2109 47.9164 28.4193 43.4997 24.086C39.1664 19.6693 34.4165 17.461 29.2498 17.461C24.1665 17.461 20.2082 18.6693 17.3749 21.086C14.5416 23.4193 13.1249 26.5859 13.1249 30.5859C13.1249 34.5026 14.7916 37.5442 18.1249 39.7109C21.5415 41.7942 25.7082 43.5025 30.6248 44.8358C35.5415 46.1692 38.7498 47.0858 40.2498 47.5858C41.8331 48.0858 43.7497 48.7941 45.9997 49.7108C48.333 50.5441 50.208 51.4608 51.6247 52.4608C53.1247 53.3774 54.6663 54.5858 56.2497 56.0858C57.9163 57.5024 59.208 59.0857 60.1246 60.8357C62.3746 64.8357 63.4996 69.5857 63.4996 75.0856C63.4996 84.0856 60.6663 91.3355 54.9997 96.8355C49.4164 102.252 42.0414 104.96 32.8748 104.96C28.1248 104.96 22.6665 104.335 16.4999 103.085C10.4166 101.835 7.04162 101.21 6.37496 101.21C5.2083 101.21 4.08331 102.46 2.99998 104.96H1.24999L0 75.2106H2.12499C5.79163 82.4606 10.4583 88.7939 16.1249 94.2105C21.8749 99.6272 27.9165 102.335 34.2498 102.335Z" fill="white"/>
<path d="M70.7632 15.3777H103.263V17.3568H97.2214V49.6483H117.95V17.3568H111.805V15.3777H144.409V17.3568H138.263V86.3147H144.409V88.2939H111.805V86.3147H117.95V52.3566H97.2214V86.3147H103.263V88.2939H70.7632V86.3147H76.909V17.3568H70.7632V15.3777Z" fill="white"/>
<path d="M191.598 86.3147L183.994 63.8149H163.369L155.349 86.3147H163.161V88.2939H147.224V86.3147H152.119L178.682 14.7527H187.223L213.473 86.3147H218.265V88.2939H184.202V86.3147H191.598ZM174.098 34.2317L164.307 61.5232H183.161L174.098 34.2317Z" fill="white"/>
<path d="M253.091 51.4191H247.57V86.3147H254.341V88.2939H220.487V86.3147H227.258V17.3568H220.487V15.3777H251.945C260.973 15.3777 267.362 15.8638 271.112 16.836C274.931 17.7388 277.605 18.8499 279.133 20.1693C282.466 22.8776 284.133 27.1832 284.133 33.0859C284.133 38.9886 282.674 43.2247 279.758 45.7942C276.841 48.2941 272.397 49.7872 266.424 50.2733V50.5858C272.049 51.3497 275.973 53.0163 278.195 55.5858C280.417 58.1552 281.529 62.4607 281.529 68.5024V74.0232C281.529 77.6342 281.702 80.0648 282.049 81.3148C282.466 82.5648 283.299 83.1898 284.549 83.1898C285.799 83.1898 286.772 82.6342 287.466 81.5231C288.23 80.3426 288.924 77.912 289.549 74.2315L291.32 74.4398C290.556 80.3426 289.202 84.3009 287.258 86.3147C285.383 88.3286 281.598 89.3356 275.904 89.3356C270.209 89.3356 266.147 88.0161 263.716 85.3773C261.355 82.6689 260.175 77.6342 260.175 70.2732V62.6691C260.175 58.7802 259.654 55.933 258.612 54.1274C257.64 52.3219 255.8 51.4191 253.091 51.4191ZM247.57 17.3568V49.44H250.904C254.862 49.44 257.779 48.2247 259.654 45.7942C261.598 43.3636 262.57 39.4053 262.57 33.9192V30.8984C262.57 25.4123 261.633 21.8012 259.758 20.0652C257.952 18.2596 255.036 17.3568 251.008 17.3568H247.57Z" fill="white"/>
<path d="M343.642 56.1066V48.3983C343.642 35.6901 343.017 27.6693 341.767 24.336C340.378 20.5165 338.399 18.1554 335.829 17.2527C334.371 16.6971 332.6 16.4193 330.517 16.4193C328.433 16.4193 326.628 16.6971 325.1 17.2527C323.642 17.8082 322.426 18.7804 321.454 20.1693C320.482 21.5582 319.683 23.0165 319.058 24.5443C318.503 26.0721 318.052 28.2248 317.704 31.0026C317.288 35.0303 317.079 40.9678 317.079 48.815V56.3149C317.079 64.7871 317.392 70.8287 318.017 74.4398C318.711 77.9815 319.545 80.5162 320.517 82.0439C322.67 85.4467 326.003 87.1481 330.517 87.1481C336.003 87.1481 339.544 84.8564 341.142 80.2731C342.808 75.6204 343.642 67.5649 343.642 56.1066ZM330.308 89.3356C318.711 89.3356 310.031 86.2106 304.267 79.9606C298.572 73.6412 295.725 64.544 295.725 52.6691C295.725 40.7247 298.781 31.3498 304.892 24.5443C311.072 17.6693 319.788 14.2319 331.038 14.2319C342.287 14.2319 350.76 17.4957 356.454 24.0235C362.218 30.4818 365.1 39.6831 365.1 51.6275C365.1 63.5718 362.183 72.8426 356.35 79.4398C350.586 86.037 341.906 89.3356 330.308 89.3356Z" fill="white"/>
<path d="M443.125 3.16942V88.2939H425.625L382.75 7.4194V104.96H389.625V107.335H70.7632V104.96H379.375V3.16942L0 3.16942V0.794434H407L439.75 63.5441V3.16942H432.875V0.794434H450V3.16942H443.125Z" fill="white"/>
</svg>
