<svg width="254" height="175" viewBox="0 0 254 175" fill="none" xmlns="http://www.w3.org/2000/svg">
<path d="M50.1005 166.431H54.0651V167.547H51.376V169.939H53.4675V171.066H51.376V174.885H50.1005V166.431Z" fill="white"/>
<path d="M70.2312 166.431H73.9315V167.558H71.5068V169.893H73.4603V171.043H71.5068V173.746H74.3107V174.885H70.2312V166.431Z" fill="white"/>
<path d="M92.3155 175C91.8559 175 91.4 174.919 90.948 174.758C90.496 174.597 90.1704 174.417 89.9713 174.218L90.5803 173.125C90.7412 173.271 90.9902 173.424 91.3273 173.585C91.672 173.739 92.0014 173.815 92.3155 173.815C92.7215 173.815 93.051 173.719 93.3038 173.528C93.5643 173.336 93.6945 173.072 93.6945 172.734C93.6945 172.473 93.6255 172.247 93.4877 172.056C93.3498 171.864 93.1812 171.707 92.982 171.584C92.7828 171.454 92.4994 171.296 92.1317 171.112C91.695 170.898 91.3962 170.737 91.2353 170.629C90.4922 170.131 90.1207 169.441 90.1207 168.559C90.1207 167.831 90.362 167.275 90.8446 166.891C91.3272 166.5 91.9363 166.305 92.6718 166.305C93.4608 166.305 94.1312 166.531 94.6828 166.983L94.0737 168.03C93.9282 167.877 93.7213 167.746 93.4532 167.639C93.1927 167.524 92.9131 167.466 92.6143 167.466C92.2312 167.466 91.9286 167.555 91.7065 167.731C91.492 167.9 91.3847 168.153 91.3847 168.49C91.3847 168.728 91.4537 168.942 91.5916 169.134C91.7295 169.318 91.9018 169.479 92.1087 169.617C92.3232 169.755 92.6105 169.924 92.9705 170.123C93.3153 170.315 93.5796 170.468 93.7634 170.583C93.9473 170.691 94.1197 170.821 94.2806 170.974C94.5027 171.174 94.6828 171.411 94.8207 171.688C94.9586 171.964 95.0275 172.266 95.0275 172.596C95.0275 173.11 94.9088 173.547 94.6713 173.907C94.4414 174.268 94.1197 174.54 93.706 174.724C93.3 174.908 92.8365 175 92.3155 175Z" fill="white"/>
<path d="M112.438 167.558H110.278V166.431H115.897V167.558H113.714V174.885H112.438V167.558Z" fill="white"/>
<path d="M132.052 166.431H133.339V174.885H132.052V166.431Z" fill="white"/>
<path d="M148.967 166.431H150.427L152.955 172.24L155.494 166.431H156.942L153.047 174.885H152.874L148.967 166.431Z" fill="white"/>
<path d="M174.885 166.42L178.953 174.885H177.471L176.747 173.229H172.874L172.15 174.885H170.714L174.759 166.42H174.885ZM174.311 170.02L173.391 172.067H176.241L175.334 170.031L174.839 168.87H174.816L174.311 170.02Z" fill="white"/>
<path d="M194.427 166.431H195.726V173.735H198.151V174.885H194.427V166.431Z" fill="white"/>
<path d="M75.7214 152.501V90.0729H94.3839C106.525 90.0729 117.378 96.9894 117.378 111.798C117.378 122.981 111.393 133.576 94.3839 133.576V152.501H75.7214Z" fill="#24B0FF"/>
<path fill-rule="evenodd" clip-rule="evenodd" d="M146.282 121.303C146.282 114.837 151.469 109.619 157.838 109.619C164.206 109.619 169.393 114.837 169.393 121.303C169.393 127.77 164.206 132.988 157.838 132.988C151.469 132.988 146.282 127.77 146.282 121.303ZM167.792 121.308C167.792 126.842 163.344 131.328 157.857 131.328C152.371 131.328 147.923 126.842 147.923 121.308C147.923 115.773 152.371 111.287 157.857 111.287C163.344 111.287 167.792 115.773 167.792 121.308Z" fill="#24B0FF"/>
<path fill-rule="evenodd" clip-rule="evenodd" d="M188.881 121.303C188.881 138.463 174.982 152.374 157.838 152.374C140.693 152.374 126.795 138.463 126.795 121.303C126.795 104.143 140.693 90.2327 157.838 90.2327C174.982 90.2327 188.881 104.143 188.881 121.303ZM157.838 106.424C149.679 106.424 143.09 113.099 143.09 121.303C143.09 129.508 149.679 136.183 157.838 136.183C165.996 136.183 172.585 129.508 172.585 121.303C172.585 113.099 165.996 106.424 157.838 106.424Z" fill="#24B0FF"/>
<path d="M198.297 152.501V90.0729H216.96C229.101 90.0729 239.954 96.9894 239.954 111.798C239.954 122.981 233.969 133.576 216.96 133.576V152.501H198.297Z" fill="#24B0FF"/>
<path d="M243.591 69.0129L238.775 79.4105C239.206 79.8609 240.267 80.5854 241.066 79.8805C242.358 79.0581 242.24 77.4132 245.236 74.3586C245.915 73.7763 247.468 72.7725 248.231 73.5949C247.761 75.416 247.35 75.9446 247.761 77.9419C248.172 79.9392 249.582 79.9979 250.463 79.8805C251.344 79.763 254.515 78.9993 253.928 77.9419C253.341 76.8845 250.933 77.9419 250.463 77.9419C249.993 77.9419 249.464 76.0034 250.463 74.3586C251.461 72.7138 250.639 70.8927 248.877 70.7752C247.468 70.6812 245.314 72.1851 244.413 72.9487L245.764 69.0129C245.803 68.7192 245.682 68.1318 244.883 68.1318C244.085 68.1318 243.689 68.7192 243.591 69.0129Z" fill="white"/>
<path d="M179.519 18.4845H130.898V31.0442H160.169L130.898 67.7383V80.1749H179.519V67.7383H150.249L179.519 31.0442V18.4845Z" fill="#24B0FF"/>
<path d="M235.261 18.4845H186.64V31.0442H215.911L186.64 67.7383V80.1749H235.261V67.7383H205.99L235.261 31.0442V18.4845Z" fill="#24B0FF"/>
<path d="M73.7594 80.1422L95.8065 18.5746H105.286L126.8 80.1422H112.614L100.28 42.5381L87.9454 80.1422H73.7594Z" fill="#24B0FF"/>
<path d="M95.1606 58.145H105.399L108.382 67.2388H92.1778L95.1606 58.145Z" fill="#24B0FF"/>
<path fill-rule="evenodd" clip-rule="evenodd" d="M131.993 3.41132C132.601 3.57427 133.794 4.37893 133.708 6.29428C133.621 8.20957 132.419 9.11736 131.829 9.3319L114.877 9.63177C114.64 9.63045 114.067 9.34003 113.665 8.18836C112.095 8.21466 110.898 8.12981 110.496 8.0841C110.37 8.11241 110.023 7.99445 109.642 7.29575C108.337 7.39316 107.679 7.32861 107.513 7.28416L106.851 7.10643L97.2974 6.96749C93.459 6.93216 85.2393 7.1633 83.0691 8.37066C82.2574 8.74942 81.1745 9.47796 80.7344 9.79484C81.4146 10.3501 82.5358 11.9555 81.5793 13.9358C81.1917 14.7385 79.0019 22.9005 76.0986 33.7222L76.0984 33.723C70.0501 56.2678 60.9053 90.3544 58.5062 93.4891C58.1502 94.2884 57.9197 94.5744 57.8488 94.6176L57.1396 94.6137L56.255 97.9181C57.2802 98.0687 59.2903 98.9185 59.1294 101.112C58.9684 103.306 57.0812 103.234 56.1578 102.925C55.8972 102.793 55.3375 102.406 55.1842 101.918C55.0724 102.335 54.9339 102.41 54.8788 102.395C55.1239 102.585 55.5623 103.026 55.3552 103.269C55.1482 103.511 54.7341 103.599 54.5528 103.613L54.227 104.83C51.895 110.666 47.2372 122.713 47.2624 124.211C48.6997 124.149 51.0859 126.293 52.0993 127.372C49.9741 131.773 45.3641 140.589 43.9267 140.651C42.4894 140.713 39.268 138.594 37.8369 137.527C34.5201 139.744 25.9502 143.584 18.2036 141.208C9.47289 138.531 6.1002 134.714 4.80745 133.251C4.66642 133.092 4.55005 132.96 4.45429 132.861C3.48061 131.854 -1.51798 123.99 0.457954 115.946C2.03868 109.51 6.18678 96.9788 8.06326 91.5173C9.86897 86.0991 13.4677 74.5139 13.4173 71.518C13.3542 67.7731 13.0158 60.4131 9.5306 58.1735C6.87939 57.4625 5.64691 56.7591 5.36205 56.4963C4.59562 56.0423 3.34948 54.7265 4.4965 53.0955C5.64346 51.4648 8.73301 50.3174 10.1344 49.9477C14.7078 48.5647 25.4639 46.1558 31.9014 47.5841C33.7364 47.6288 35.8521 48.0844 36.6807 48.3066C37.761 48.4722 40.0186 49.2391 40.4042 50.9827C40.7899 52.7265 38.1802 54.4249 36.8273 55.0562C36.3649 55.6778 35.4703 57.3391 35.5908 59.0115C35.6486 59.8125 35.8598 60.8187 36.0749 61.8434C36.4213 63.4935 36.7779 65.1917 36.5194 66.1572C36.8798 66.4031 37.1599 66.6397 37.2548 66.7271C37.5689 66.4387 38.3771 65.9843 39.0981 66.4759C39.8188 66.9676 39.9854 67.5838 39.9787 67.8305L41.3043 68.1861L42.9187 64.1455C42.7892 63.303 42.4013 61.4344 41.8875 60.7002C42.26 59.309 42.7912 58.2088 43.0104 57.8327C42.7653 57.6428 42.2792 57.1147 42.2954 56.5227C42.3118 55.9305 44.3307 51.3524 45.3383 49.1373C45.7937 48.7624 47.6163 48.8536 51.2624 52.2172C51.2328 49.6743 53.2064 47.8302 54.197 47.2261L54.4298 46.3564L52.2086 46.6929C51.7773 47.1984 50.7396 48.2001 50.0394 48.1613C49.0191 47.3287 49.1588 46.8069 49.3916 45.9374C49.6244 45.0677 57.2588 33.1357 59.4334 32.9733C58.2116 31.8462 58.4188 31.2394 58.6201 30.6505C58.6534 30.5529 58.6866 30.4558 58.713 30.357C58.7679 30.1519 59.5723 28.8194 60.6822 26.9807C63.337 22.5825 67.7404 15.2882 67.8166 13.5998C67.8749 12.3081 67.543 11.5087 67.2574 10.8207C67.0137 10.2337 66.8039 9.72778 66.899 9.06675C67.0644 7.91811 68.3866 8.59579 69.027 9.07822L69.9858 12.1311L70.9485 10.5255L71.7975 10.0076L72.4083 9.05304C72.427 7.87756 72.7801 5.27575 74.0431 4.27244C74.1921 3.71595 74.4021 3.37461 74.4882 3.27344C76.2018 2.17974 79.9128 -0.00615779 81.0478 1.30376e-05C81.6733 0.316874 82.3026 0.39866 82.539 0.399926C85.77 0.272338 92.5633 0.106042 93.8888 0.461507C94.4135 0.0299188 94.5078 0.0320318 94.7693 0.0380037C94.8484 0.0397949 94.9429 0.0419628 95.0694 0.0325472C95.5043 5.80962e-05 95.7409 0.399035 95.8047 0.602548C96.7418 0.418946 98.7633 0.16579 99.3515 0.62178C100.087 1.19178 99.6885 2.01693 99.4297 2.32029C99.2226 2.563 99.5817 2.85811 99.787 2.97531L105.415 3.18003C106.282 3.03956 108.355 2.81284 109.718 3.02918C110.265 2.57938 110.733 2.55579 110.899 2.60024L113.902 2.66003C114.167 2.10996 114.864 1.05428 115.527 1.23201C116.19 1.4098 116.262 1.80202 116.216 1.97594L131.993 3.41132ZM29.4127 96.6838L29.936 97.3834C29.6546 97.9913 28.9266 99.1631 28.2639 98.9854C27.601 98.8076 26.1317 103.632 25.4799 106.067L24.6884 109.024C24.264 109.283 23.6852 109.985 24.7666 110.722C25.8479 111.46 30.0019 113.058 31.9439 113.765C30.8556 117.388 28.4049 124.596 27.3072 124.451C26.9638 124.406 26.5445 124.27 26.0741 124.117C24.6647 123.661 22.7964 123.056 21.1352 124.287C19.2192 124.146 20.7763 117.667 21.2211 116.668C21.5774 115.869 22.3464 116.224 22.6864 116.502C23.2873 116.911 24.5342 117.295 24.716 115.555C24.8979 113.814 23.7418 112.56 23.1411 112.15C23.2479 111.309 23.5825 109.174 24.0667 107.366C24.6719 105.105 27.2176 97.5863 28.0666 97.0684C28.7459 96.6542 29.247 96.6393 29.4127 96.6838ZM33.5823 81.7722C34.152 82.2977 35.2687 83.5665 35.1777 84.4369C35.0868 85.307 32.4733 91.6643 31.1779 94.7341C30.9706 94.1814 30.4568 93.0495 30.059 92.9428C29.71 92.8492 29.5429 92.9959 29.4863 93.1116C30.8873 89.4317 33.6401 82.0846 33.5823 81.7722ZM29.4688 93.1575L29.4863 93.1116C29.4784 93.1276 29.4726 93.1433 29.4688 93.1575ZM36.2922 68.333L36.6235 68.4219C36.8377 68.7279 37.3892 69.4099 37.8821 69.6913C38.375 69.9727 38.9228 69.7841 39.1351 69.6547C39.5769 69.7732 40.466 70.1233 40.4868 70.5762C40.5076 71.0292 37.7047 78.0936 36.3006 81.5693C35.9364 81.1609 35.1084 80.3176 34.7106 80.2109C34.313 80.1043 34.1826 80.1935 34.1671 80.2515C35.0499 76.5118 36.7106 68.8927 36.2922 68.333Z" fill="#24B0FF"/>
</svg>
